<?xml version="1.0" encoding="UTF-8" standalone="no"?>
<!DOCTYPE svg PUBLIC "-//W3C//DTD SVG 1.1//EN"
 "http://www.w3.org/Graphics/SVG/1.1/DTD/svg11.dtd">
<!-- Generated by graphviz version 2.38.0 (20140413.2041)
 -->
<!-- Title: foo Pages: 1 -->
<svg width="1660pt" height="1239pt"
 viewBox="0.00 0.00 1660.26 1239.20" xmlns="http://www.w3.org/2000/svg" xmlns:xlink="http://www.w3.org/1999/xlink">
<g id="graph0" class="graph" transform="scale(1 1) rotate(0) translate(839.674 584.156)">
<title>foo</title>
<polygon fill="white" stroke="none" points="-839.674,655.044 -839.674,-584.156 820.583,-584.156 820.583,655.044 -839.674,655.044"/>
<!-- PubmedArticle -->
<g id="node1" class="node"><title>PubmedArticle</title>
<ellipse fill="none" stroke="Red" cx="-369.566" cy="-110.903" rx="64.189" ry="18"/>
<text text-anchor="middle" x="-369.566" y="-107.203" font-family="Times,serif" font-size="14.00">PubmedArticle</text>
</g>
<!-- MedlineCitation -->
<g id="node2" class="node"><title>MedlineCitation</title>
<ellipse fill="none" stroke="Red" cx="-59.7308" cy="-73.2374" rx="68.7879" ry="18"/>
<text text-anchor="middle" x="-59.7308" y="-69.5374" font-family="Times,serif" font-size="14.00">MedlineCitation</text>
</g>
<!-- PubmedArticle&#45;&gt;MedlineCitation -->
<g id="edge1" class="edge"><title>PubmedArticle&#45;&gt;MedlineCitation</title>
<path fill="none" stroke="Blue" d="M-314.502,-101.427C-298.679,-98.8178 -281.386,-96.0744 -265.427,-93.773 -222.874,-87.6366 -175.104,-82.7464 -136.317,-79.2799"/>
<polygon fill="Blue" stroke="Blue" points="-135.799,-82.7479 -126.145,-78.3848 -136.413,-75.7748 -135.799,-82.7479"/>
</g>
<!-- PubmedData -->
<g id="node68" class="node"><title>PubmedData</title>
<ellipse fill="none" stroke="Red" cx="-527.617" cy="-134.065" rx="56.59" ry="18"/>
<text text-anchor="middle" x="-527.617" y="-130.365" font-family="Times,serif" font-size="14.00">PubmedData</text>
</g>
<!-- PubmedArticle&#45;&gt;PubmedData -->
<g id="edge70" class="edge"><title>PubmedArticle&#45;&gt;PubmedData</title>
<path fill="none" stroke="Blue" d="M-426.626,-119.265C-439.394,-121.136 -452.993,-123.129 -465.938,-125.026"/>
<polygon fill="Blue" stroke="Blue" points="-466.765,-121.61 -476.152,-126.523 -465.75,-128.536 -466.765,-121.61"/>
</g>
<!-- Article -->
<g id="node3" class="node"><title>Article</title>
<ellipse fill="none" stroke="Red" cx="76.0668" cy="84.3349" rx="35.194" ry="18"/>
<text text-anchor="middle" x="76.0668" y="88.0349" font-family="Times,serif" font-size="14.00">Article</text>
</g>
<!-- MedlineCitation&#45;&gt;Article -->
<g id="edge2" class="edge"><title>MedlineCitation&#45;&gt;Article</title>
<path fill="none" stroke="Blue" d="M-21.8437,-58.085C1.70779,-46.5664 30.319,-28.3024 45.589,-2.688 53.5726,10.7038 46.099,17.1188 50.6881,32.019 53.379,40.7562 57.3421,49.8588 61.3405,57.9748"/>
<polygon fill="Blue" stroke="Blue" points="64.5055,56.4759 65.9764,66.9681 58.2835,59.6832 64.5055,56.4759"/>
</g>
<!-- ChemicalList -->
<g id="node38" class="node"><title>ChemicalList</title>
<ellipse fill="none" stroke="Red" cx="-133.862" cy="-287.433" rx="58.4896" ry="18"/>
<text text-anchor="middle" x="-133.862" y="-283.733" font-family="Times,serif" font-size="14.00">ChemicalList</text>
</g>
<!-- MedlineCitation&#45;&gt;ChemicalList -->
<g id="edge37" class="edge"><title>MedlineCitation&#45;&gt;ChemicalList</title>
<path fill="none" stroke="Blue" d="M-68.9815,-91.197C-87.8309,-128.2 -129.422,-212.081 -135.473,-243.343 -136.441,-248.344 -136.797,-253.721 -136.795,-258.943"/>
<polygon fill="Blue" stroke="Blue" points="-140.278,-259.425 -136.365,-269.271 -133.284,-259.134 -140.278,-259.425"/>
</g>
<!-- CitationSubset -->
<g id="node42" class="node"><title>CitationSubset</title>
<ellipse fill="none" stroke="Red" cx="-220.535" cy="-107.741" rx="62.2891" ry="18"/>
<text text-anchor="middle" x="-220.535" y="-104.041" font-family="Times,serif" font-size="14.00">CitationSubset</text>
</g>
<!-- MedlineCitation&#45;&gt;CitationSubset -->
<g id="edge41" class="edge"><title>MedlineCitation&#45;&gt;CitationSubset</title>
<path fill="none" stroke="Blue" d="M-113.276,-84.7267C-128.34,-87.9591 -144.826,-91.4963 -160.254,-94.8069"/>
<polygon fill="Blue" stroke="Blue" points="-161.172,-91.4241 -170.215,-96.9442 -159.704,-98.2683 -161.172,-91.4241"/>
</g>
<!-- CommentsCorrectionsList -->
<g id="node43" class="node"><title>CommentsCorrectionsList</title>
<ellipse fill="none" stroke="Red" cx="190.354" cy="-193.43" rx="104.782" ry="18"/>
<text text-anchor="middle" x="190.354" y="-189.73" font-family="Times,serif" font-size="14.00">CommentsCorrectionsList</text>
</g>
<!-- MedlineCitation&#45;&gt;CommentsCorrectionsList -->
<g id="edge42" class="edge"><title>MedlineCitation&#45;&gt;CommentsCorrectionsList</title>
<path fill="none" stroke="Blue" d="M-26.7795,-89.0742C17.4549,-110.334 96.191,-148.175 145.713,-171.976"/>
<polygon fill="Blue" stroke="Blue" points="144.378,-175.217 154.907,-176.394 147.41,-168.908 144.378,-175.217"/>
</g>
<!-- PMID -->
<g id="node46" class="node"><title>PMID</title>
<ellipse fill="none" stroke="Red" cx="213.867" cy="-149.048" rx="33.2948" ry="18"/>
<text text-anchor="middle" x="213.867" y="-145.348" font-family="Times,serif" font-size="14.00">PMID</text>
</g>
<!-- MedlineCitation&#45;&gt;PMID -->
<g id="edge67" class="edge"><title>MedlineCitation&#45;&gt;PMID</title>
<path fill="none" stroke="Blue" d="M-12.386,-86.3561C40.4129,-100.986 124.871,-124.388 174.292,-138.082"/>
<polygon fill="Blue" stroke="Blue" points="173.414,-141.471 183.986,-140.768 175.283,-134.725 173.414,-141.471"/>
</g>
<!-- DateCompleted -->
<g id="node48" class="node"><title>DateCompleted</title>
<ellipse fill="none" stroke="Red" cx="-161.625" cy="-1.74301" rx="66.0889" ry="18"/>
<text text-anchor="middle" x="-161.625" y="1.95699" font-family="Times,serif" font-size="14.00">DateCompleted</text>
</g>
<!-- MedlineCitation&#45;&gt;DateCompleted -->
<g id="edge47" class="edge"><title>MedlineCitation&#45;&gt;DateCompleted</title>
<path fill="none" stroke="Blue" d="M-83.8783,-56.2942C-97.4562,-46.7672 -114.584,-34.7492 -129.306,-24.4197"/>
<polygon fill="Blue" stroke="Blue" points="-127.454,-21.4432 -137.651,-18.5646 -131.475,-27.1734 -127.454,-21.4432"/>
</g>
<!-- DateCreated -->
<g id="node49" class="node"><title>DateCreated</title>
<ellipse fill="none" stroke="Red" cx="-160.59" cy="-155.955" rx="54.6905" ry="18"/>
<text text-anchor="middle" x="-160.59" y="-152.255" font-family="Times,serif" font-size="14.00">DateCreated</text>
</g>
<!-- MedlineCitation&#45;&gt;DateCreated -->
<g id="edge48" class="edge"><title>MedlineCitation&#45;&gt;DateCreated</title>
<path fill="none" stroke="Blue" d="M-81.1205,-90.7797C-95.8929,-102.895 -115.709,-119.146 -131.857,-132.39"/>
<polygon fill="Blue" stroke="Blue" points="-134.408,-129.956 -139.921,-139.004 -129.969,-135.369 -134.408,-129.956"/>
</g>
<!-- DateRevised -->
<g id="node50" class="node"><title>DateRevised</title>
<ellipse fill="none" stroke="Red" cx="108.879" cy="-60.6471" rx="55.7903" ry="18"/>
<text text-anchor="middle" x="108.879" y="-56.9471" font-family="Times,serif" font-size="14.00">DateRevised</text>
</g>
<!-- MedlineCitation&#45;&gt;DateRevised -->
<g id="edge49" class="edge"><title>MedlineCitation&#45;&gt;DateRevised</title>
<path fill="none" stroke="Blue" d="M6.90809,-68.2614C19.2053,-67.3432 32.0276,-66.3857 44.2637,-65.472"/>
<polygon fill="Blue" stroke="Blue" points="44.6681,-68.9517 54.3797,-64.7166 44.1468,-61.9711 44.6681,-68.9517"/>
</g>
<!-- GeneralNote -->
<g id="node51" class="node"><title>GeneralNote</title>
<ellipse fill="none" stroke="Red" cx="-193.135" cy="-45.7713" rx="55.7903" ry="18"/>
<text text-anchor="middle" x="-193.135" y="-42.0713" font-family="Times,serif" font-size="14.00">GeneralNote</text>
</g>
<!-- MedlineCitation&#45;&gt;GeneralNote -->
<g id="edge50" class="edge"><title>MedlineCitation&#45;&gt;GeneralNote</title>
<path fill="none" stroke="Blue" d="M-113.992,-62.0659C-121.232,-60.5751 -128.676,-59.0426 -135.964,-57.5421"/>
<polygon fill="Blue" stroke="Blue" points="-135.273,-54.111 -145.773,-55.5225 -136.685,-60.9672 -135.273,-54.111"/>
</g>
<!-- InvestigatorList -->
<g id="node52" class="node"><title>InvestigatorList</title>
<ellipse fill="none" stroke="Red" cx="11.3343" cy="-199.157" rx="66.0889" ry="18"/>
<text text-anchor="middle" x="11.3343" y="-195.457" font-family="Times,serif" font-size="14.00">InvestigatorList</text>
</g>
<!-- MedlineCitation&#45;&gt;InvestigatorList -->
<g id="edge51" class="edge"><title>MedlineCitation&#45;&gt;InvestigatorList</title>
<path fill="none" stroke="Blue" d="M-49.5489,-91.2786C-37.5698,-112.504 -17.5698,-147.942 -3.78005,-172.376"/>
<polygon fill="Blue" stroke="Blue" points="-6.79185,-174.161 1.17125,-181.149 -0.69569,-170.72 -6.79185,-174.161"/>
</g>
<!-- KeywordList -->
<g id="node54" class="node"><title>KeywordList</title>
<ellipse fill="none" stroke="Red" cx="-76.6784" cy="-243.408" rx="57.3905" ry="18"/>
<text text-anchor="middle" x="-76.6784" y="-239.708" font-family="Times,serif" font-size="14.00">KeywordList</text>
</g>
<!-- MedlineCitation&#45;&gt;KeywordList -->
<g id="edge53" class="edge"><title>MedlineCitation&#45;&gt;KeywordList</title>
<path fill="none" stroke="Blue" d="M-61.5445,-91.4487C-64.5006,-121.131 -70.3781,-180.146 -73.8749,-215.257"/>
<polygon fill="Blue" stroke="Blue" points="-77.3694,-215.03 -74.8778,-225.328 -70.4039,-215.724 -77.3694,-215.03"/>
</g>
<!-- MedlineJournalInfo -->
<g id="node56" class="node"><title>MedlineJournalInfo</title>
<ellipse fill="none" stroke="Red" cx="-294.175" cy="44.4851" rx="81.4863" ry="18"/>
<text text-anchor="middle" x="-294.175" y="48.1851" font-family="Times,serif" font-size="14.00">MedlineJournalInfo</text>
</g>
<!-- MedlineCitation&#45;&gt;MedlineJournalInfo -->
<g id="edge55" class="edge"><title>MedlineCitation&#45;&gt;MedlineJournalInfo</title>
<path fill="none" stroke="Blue" d="M-92.6372,-57.2038C-110.083,-49.0522 -132.021,-39.3477 -152.166,-32.02 -177.225,-22.905 -185.804,-27.0541 -209.854,-15.5382 -219.504,-10.9177 -220.794,-7.84553 -229.518,-1.65255 -239.972,5.76844 -251.361,13.8843 -261.626,21.2116"/>
<polygon fill="Blue" stroke="Blue" points="-259.767,24.1851 -269.939,27.1485 -263.835,18.4886 -259.767,24.1851"/>
</g>
<!-- MeshHeadingList -->
<g id="node60" class="node"><title>MeshHeadingList</title>
<ellipse fill="none" stroke="Red" cx="-429.474" cy="-182.777" rx="74.187" ry="18"/>
<text text-anchor="middle" x="-429.474" y="-179.077" font-family="Times,serif" font-size="14.00">MeshHeadingList</text>
</g>
<!-- MedlineCitation&#45;&gt;MeshHeadingList -->
<g id="edge60" class="edge"><title>MedlineCitation&#45;&gt;MeshHeadingList</title>
<path fill="none" stroke="Blue" d="M-93.6747,-89.1258C-116.496,-99.3845 -147.447,-112.488 -175.642,-121.71 -237.435,-141.919 -309.67,-158.653 -361.247,-169.462"/>
<polygon fill="Blue" stroke="Blue" points="-362.197,-166.085 -371.277,-171.544 -360.775,-172.938 -362.197,-166.085"/>
</g>
<!-- OtherAbstract -->
<g id="node64" class="node"><title>OtherAbstract</title>
<ellipse fill="none" stroke="Red" cx="-16.4539" cy="-2.54212" rx="60.3893" ry="18"/>
<text text-anchor="middle" x="-16.4539" y="1.15788" font-family="Times,serif" font-size="14.00">OtherAbstract</text>
</g>
<!-- MedlineCitation&#45;&gt;OtherAbstract -->
<g id="edge64" class="edge"><title>MedlineCitation&#45;&gt;OtherAbstract</title>
<path fill="none" stroke="Blue" d="M-48.8102,-55.398C-43.9783,-47.5048 -38.1925,-38.0533 -32.8581,-29.3394"/>
<polygon fill="Blue" stroke="Blue" points="-29.7575,-30.9779 -27.5215,-20.6217 -35.7277,-27.3232 -29.7575,-30.9779"/>
</g>
<!-- OtherID -->
<g id="node65" class="node"><title>OtherID</title>
<ellipse fill="none" stroke="Red" cx="138.092" cy="-104.935" rx="40.0939" ry="18"/>
<text text-anchor="middle" x="138.092" y="-101.235" font-family="Times,serif" font-size="14.00">OtherID</text>
</g>
<!-- MedlineCitation&#45;&gt;OtherID -->
<g id="edge66" class="edge"><title>MedlineCitation&#45;&gt;OtherID</title>
<path fill="none" stroke="Blue" d="M-0.912996,-82.6619C28.0713,-87.3061 62.5845,-92.8362 89.9697,-97.2242"/>
<polygon fill="Blue" stroke="Blue" points="89.6621,-100.719 100.09,-98.8458 90.7696,-93.8077 89.6621,-100.719"/>
</g>
<!-- PersonalNameSubjectList -->
<g id="node66" class="node"><title>PersonalNameSubjectList</title>
<ellipse fill="none" stroke="Red" cx="-244.64" cy="-203.008" rx="102.882" ry="18"/>
<text text-anchor="middle" x="-244.64" y="-199.308" font-family="Times,serif" font-size="14.00">PersonalNameSubjectList</text>
</g>
<!-- MedlineCitation&#45;&gt;PersonalNameSubjectList -->
<g id="edge68" class="edge"><title>MedlineCitation&#45;&gt;PersonalNameSubjectList</title>
<path fill="none" stroke="Blue" d="M-96.3154,-88.6656C-137.204,-106.544 -199.903,-136.066 -216.783,-155.777 -221.977,-161.842 -226.757,-169.002 -230.838,-175.89"/>
<polygon fill="Blue" stroke="Blue" points="-234.1,-174.551 -235.943,-184.984 -227.996,-177.977 -234.1,-174.551"/>
</g>
<!-- Abstract -->
<g id="node4" class="node"><title>Abstract</title>
<ellipse fill="none" stroke="Red" cx="0.248656" cy="172.752" rx="40.0939" ry="18"/>
<text text-anchor="middle" x="0.248656" y="176.452" font-family="Times,serif" font-size="14.00">Abstract</text>
</g>
<!-- Article&#45;&gt;Abstract -->
<g id="edge3" class="edge"><title>Article&#45;&gt;Abstract</title>
<path fill="none" stroke="Blue" d="M61.806,100.965C50.4412,114.219 34.3554,132.978 21.4774,147.996"/>
<polygon fill="Blue" stroke="Blue" points="23.8697,150.583 14.7033,155.896 18.5559,146.026 23.8697,150.583"/>
</g>
<!-- ArticleDate -->
<g id="node7" class="node"><title>ArticleDate</title>
<ellipse fill="none" stroke="Red" cx="103.632" cy="162.358" rx="51.9908" ry="18"/>
<text text-anchor="middle" x="103.632" y="166.058" font-family="Times,serif" font-size="14.00">ArticleDate</text>
</g>
<!-- Article&#45;&gt;ArticleDate -->
<g id="edge6" class="edge"><title>Article&#45;&gt;ArticleDate</title>
<path fill="none" stroke="Blue" d="M82.46,102.431C85.8347,111.983 90.0485,123.911 93.8264,134.604"/>
<polygon fill="Blue" stroke="Blue" points="97.2421,133.765 97.2732,144.36 90.6419,136.097 97.2421,133.765"/>
</g>
<!-- ArticleTitle -->
<g id="node8" class="node"><title>ArticleTitle</title>
<ellipse fill="none" stroke="Red" cx="225.414" cy="74.1075" rx="51.9908" ry="18"/>
<text text-anchor="middle" x="225.414" y="77.8075" font-family="Times,serif" font-size="14.00">ArticleTitle</text>
</g>
<!-- Article&#45;&gt;ArticleTitle -->
<g id="edge7" class="edge"><title>Article&#45;&gt;ArticleTitle</title>
<path fill="none" stroke="Blue" d="M111.082,81.937C126.867,80.856 145.983,79.547 164.028,78.3112"/>
<polygon fill="Blue" stroke="Blue" points="163.989,74.8058 174.205,77.6143 164.468,81.7894 163.989,74.8058"/>
</g>
<!-- AuthorList -->
<g id="node9" class="node"><title>AuthorList</title>
<ellipse fill="none" stroke="Red" cx="47.035" cy="251.21" rx="49.2915" ry="18"/>
<text text-anchor="middle" x="47.035" y="254.91" font-family="Times,serif" font-size="14.00">AuthorList</text>
</g>
<!-- Article&#45;&gt;AuthorList -->
<g id="edge8" class="edge"><title>Article&#45;&gt;AuthorList</title>
<path fill="none" stroke="Blue" d="M68.5717,101.957C62.3353,117.553 53.8793,141.095 50.0376,162.491 46.4514,182.464 45.7599,205.362 45.9342,222.892"/>
<polygon fill="Blue" stroke="Blue" points="49.4363,222.971 46.1364,233.039 42.4377,223.11 49.4363,222.971"/>
</g>
<!-- DataBankList -->
<g id="node11" class="node"><title>DataBankList</title>
<ellipse fill="none" stroke="Red" cx="333.31" cy="27.4849" rx="59.5901" ry="18"/>
<text text-anchor="middle" x="333.31" y="31.1849" font-family="Times,serif" font-size="14.00">DataBankList</text>
</g>
<!-- Article&#45;&gt;DataBankList -->
<g id="edge10" class="edge"><title>Article&#45;&gt;DataBankList</title>
<path fill="none" stroke="Blue" d="M108.386,77.1923C150.007,67.9942 223.108,51.8392 274.656,40.4472"/>
<polygon fill="Blue" stroke="Blue" points="274.143,36.9762 284.663,38.2358 275.653,43.8113 274.143,36.9762"/>
</g>
<!-- ELocationID -->
<g id="node16" class="node"><title>ELocationID</title>
<ellipse fill="none" stroke="Red" cx="177.375" cy="118.237" rx="56.59" ry="18"/>
<text text-anchor="middle" x="177.375" y="121.937" font-family="Times,serif" font-size="14.00">ELocationID</text>
</g>
<!-- Article&#45;&gt;ELocationID -->
<g id="edge15" class="edge"><title>Article&#45;&gt;ELocationID</title>
<path fill="none" stroke="Blue" d="M105.642,94.232C112.866,96.6497 120.787,99.3004 128.646,101.93"/>
<polygon fill="Blue" stroke="Blue" points="129.778,98.6185 138.151,105.111 127.557,105.257 129.778,98.6185"/>
</g>
<!-- GrantList -->
<g id="node17" class="node"><title>GrantList</title>
<ellipse fill="none" stroke="Red" cx="-161.979" cy="204.26" rx="44.393" ry="18"/>
<text text-anchor="middle" x="-161.979" y="207.96" font-family="Times,serif" font-size="14.00">GrantList</text>
</g>
<!-- Article&#45;&gt;GrantList -->
<g id="edge16" class="edge"><title>Article&#45;&gt;GrantList</title>
<path fill="none" stroke="Blue" d="M55.4126,98.9609C43.1527,107.632 27.2967,118.829 13.1881,128.736 4.37985,134.92 2.80997,137.498 -6.66743,142.598 -42.5523,161.911 -85.8176,178.595 -117.56,189.72"/>
<polygon fill="Blue" stroke="Blue" points="-116.425,193.031 -127.02,192.991 -118.713,186.415 -116.425,193.031"/>
</g>
<!-- Journal -->
<g id="node23" class="node"><title>Journal</title>
<ellipse fill="none" stroke="Red" cx="314.177" cy="170.1" rx="36.2938" ry="18"/>
<text text-anchor="middle" x="314.177" y="173.8" font-family="Times,serif" font-size="14.00">Journal</text>
</g>
<!-- Article&#45;&gt;Journal -->
<g id="edge22" class="edge"><title>Article&#45;&gt;Journal</title>
<path fill="none" stroke="Blue" d="M92.1078,100.448C103.549,111.029 119.812,124.32 136.527,132.186 178.519,151.949 230.939,161.52 267.921,166.085"/>
<polygon fill="Blue" stroke="Blue" points="268.39,162.616 277.921,167.244 267.584,169.569 268.39,162.616"/>
</g>
<!-- Language -->
<g id="node32" class="node"><title>Language</title>
<ellipse fill="none" stroke="Red" cx="219.955" cy="27.0326" rx="45.4919" ry="18"/>
<text text-anchor="middle" x="219.955" y="30.7326" font-family="Times,serif" font-size="14.00">Language</text>
</g>
<!-- Article&#45;&gt;Language -->
<g id="edge31" class="edge"><title>Article&#45;&gt;Language</title>
<path fill="none" stroke="Blue" d="M103.81,73.2864C124.912,64.8827 154.297,53.1803 178.23,43.6493"/>
<polygon fill="Blue" stroke="Blue" points="177.19,40.296 187.776,39.8477 179.78,46.7992 177.19,40.296"/>
</g>
<!-- Pagination -->
<g id="node33" class="node"><title>Pagination</title>
<ellipse fill="none" stroke="Red" cx="-58.5533" cy="234.342" rx="48.1917" ry="18"/>
<text text-anchor="middle" x="-58.5533" y="238.042" font-family="Times,serif" font-size="14.00">Pagination</text>
</g>
<!-- Article&#45;&gt;Pagination -->
<g id="edge32" class="edge"><title>Article&#45;&gt;Pagination</title>
<path fill="none" stroke="Blue" d="M55.2753,99.0209C24.5981,120.691 -29.2261,158.72 -29.4645,158.934 -35.5647,164.424 -37.7539,165.586 -41.6476,172.811 -47.2239,183.157 -51.0818,195.496 -53.6879,206.398"/>
<polygon fill="Blue" stroke="Blue" points="-50.293,207.26 -55.8182,216.3 -57.1364,205.787 -50.293,207.26"/>
</g>
<!-- PublicationTypeList -->
<g id="node35" class="node"><title>PublicationTypeList</title>
<ellipse fill="none" stroke="Red" cx="187.078" cy="211.903" rx="82.5854" ry="18"/>
<text text-anchor="middle" x="187.078" y="215.603" font-family="Times,serif" font-size="14.00">PublicationTypeList</text>
</g>
<!-- Article&#45;&gt;PublicationTypeList -->
<g id="edge34" class="edge"><title>Article&#45;&gt;PublicationTypeList</title>
<path fill="none" stroke="Blue" d="M94.8448,99.8044C112.243,114.698 138.223,138.413 157.226,162.225 162.698,169.083 167.905,177.031 172.393,184.532"/>
<polygon fill="Blue" stroke="Blue" points="175.703,183.266 177.66,193.679 169.637,186.759 175.703,183.266"/>
</g>
<!-- VernacularTitle -->
<g id="node37" class="node"><title>VernacularTitle</title>
<ellipse fill="none" stroke="Red" cx="-54.706" cy="128.748" rx="66.0889" ry="18"/>
<text text-anchor="middle" x="-54.706" y="132.448" font-family="Times,serif" font-size="14.00">VernacularTitle</text>
</g>
<!-- Article&#45;&gt;VernacularTitle -->
<g id="edge36" class="edge"><title>Article&#45;&gt;VernacularTitle</title>
<path fill="none" stroke="Blue" d="M46.7188,94.302C31.9884,99.3047 13.7094,105.513 -3.25675,111.275"/>
<polygon fill="Blue" stroke="Blue" points="-2.4633,114.701 -13.0577,114.603 -4.7144,108.073 -2.4633,114.701"/>
</g>
<!-- AbstractText -->
<g id="node5" class="node"><title>AbstractText</title>
<ellipse fill="none" stroke="Red" cx="108.832" cy="31.8776" rx="56.59" ry="18"/>
<text text-anchor="middle" x="108.832" y="35.5776" font-family="Times,serif" font-size="14.00">AbstractText</text>
</g>
<!-- Abstract&#45;&gt;AbstractText -->
<g id="edge4" class="edge"><title>Abstract&#45;&gt;AbstractText</title>
<path fill="none" stroke="Blue" d="M4.6642,154.82C11.0714,132.298 25.0048,93.7942 50.0031,70.5373 56.6272,64.3746 64.3398,58.5432 71.9575,53.3668"/>
<polygon fill="Blue" stroke="Blue" points="70.497,50.1408 80.7853,47.6105 74.3205,56.0044 70.497,50.1408"/>
</g>
<!-- CopyrightInformation -->
<g id="node6" class="node"><title>CopyrightInformation</title>
<ellipse fill="none" stroke="Red" cx="-102.087" cy="342.727" rx="89.0842" ry="18"/>
<text text-anchor="middle" x="-102.087" y="346.427" font-family="Times,serif" font-size="14.00">CopyrightInformation</text>
</g>
<!-- Abstract&#45;&gt;CopyrightInformation -->
<g id="edge5" class="edge"><title>Abstract&#45;&gt;CopyrightInformation</title>
<path fill="none" stroke="Blue" d="M0.188431,191.003C-0.473244,203.657 -2.6221,220.621 -8.85789,234.271 -23.9271,267.259 -52.1501,297.91 -73.6114,318.152"/>
<polygon fill="Blue" stroke="Blue" points="-71.4501,320.92 -81.1753,325.124 -76.1943,315.773 -71.4501,320.92"/>
</g>
<!-- Author -->
<g id="node10" class="node"><title>Author</title>
<ellipse fill="none" stroke="Red" cx="42.2014" cy="408.774" rx="35.9954" ry="18"/>
<text text-anchor="middle" x="42.2014" y="412.474" font-family="Times,serif" font-size="14.00">Author</text>
</g>
<!-- AuthorList&#45;&gt;Author -->
<g id="edge9" class="edge"><title>AuthorList&#45;&gt;Author</title>
<path fill="none" stroke="Blue" d="M46.4805,269.285C45.6473,296.446 44.0647,348.035 43.0752,380.29"/>
<polygon fill="Blue" stroke="Blue" points="46.5693,380.537 42.7643,390.425 39.5726,380.322 46.5693,380.537"/>
</g>
<!-- DataBank -->
<g id="node12" class="node"><title>DataBank</title>
<ellipse fill="none" stroke="Red" cx="422.134" cy="-20.1938" rx="46.2923" ry="18"/>
<text text-anchor="middle" x="422.134" y="-16.4938" font-family="Times,serif" font-size="14.00">DataBank</text>
</g>
<!-- DataBankList&#45;&gt;DataBank -->
<g id="edge11" class="edge"><title>DataBankList&#45;&gt;DataBank</title>
<path fill="none" stroke="Blue" d="M362.887,11.6086C370.206,7.6798 378.133,3.42499 385.736,-0.655887"/>
<polygon fill="Blue" stroke="Blue" points="384.319,-3.86811 394.786,-5.51379 387.63,2.29954 384.319,-3.86811"/>
</g>
<!-- AccessionNumberList -->
<g id="node13" class="node"><title>AccessionNumberList</title>
<ellipse fill="none" stroke="Red" cx="565.993" cy="18.179" rx="89.8845" ry="18"/>
<text text-anchor="middle" x="565.993" y="21.879" font-family="Times,serif" font-size="14.00">AccessionNumberList</text>
</g>
<!-- DataBank&#45;&gt;AccessionNumberList -->
<g id="edge12" class="edge"><title>DataBank&#45;&gt;AccessionNumberList</title>
<path fill="none" stroke="Blue" d="M460.308,-10.0113C473.158,-6.5837 487.867,-2.66022 502.146,1.14849"/>
<polygon fill="Blue" stroke="Blue" points="503.174,-2.19968 511.935,3.75944 501.37,4.56385 503.174,-2.19968"/>
</g>
<!-- DataBankName -->
<g id="node15" class="node"><title>DataBankName</title>
<ellipse fill="none" stroke="Red" cx="543.127" cy="-115.84" rx="67.6881" ry="18"/>
<text text-anchor="middle" x="543.127" y="-112.14" font-family="Times,serif" font-size="14.00">DataBankName</text>
</g>
<!-- DataBank&#45;&gt;DataBankName -->
<g id="edge14" class="edge"><title>DataBank&#45;&gt;DataBankName</title>
<path fill="none" stroke="Blue" d="M442.659,-36.4189C462.029,-51.7311 491.294,-74.8659 513.251,-92.2231"/>
<polygon fill="Blue" stroke="Blue" points="511.257,-95.1084 521.273,-98.5642 515.598,-89.617 511.257,-95.1084"/>
</g>
<!-- AccessionNumber -->
<g id="node14" class="node"><title>AccessionNumber</title>
<ellipse fill="none" stroke="Red" cx="740.539" cy="4.55611" rx="76.0865" ry="18"/>
<text text-anchor="middle" x="740.539" y="8.25611" font-family="Times,serif" font-size="14.00">AccessionNumber</text>
</g>
<!-- AccessionNumberList&#45;&gt;AccessionNumber -->
<g id="edge13" class="edge"><title>AccessionNumberList&#45;&gt;AccessionNumber</title>
<path fill="none" stroke="Blue" d="M649.688,11.6469C652.502,11.4272 655.322,11.2071 658.135,10.9875"/>
<polygon fill="Blue" stroke="Blue" points="658.028,7.48536 668.27,10.1966 658.573,14.4641 658.028,7.48536"/>
</g>
<!-- Grant -->
<g id="node18" class="node"><title>Grant</title>
<ellipse fill="none" stroke="Red" cx="-252.93" cy="316.424" rx="30.5947" ry="18"/>
<text text-anchor="middle" x="-252.93" y="320.124" font-family="Times,serif" font-size="14.00">Grant</text>
</g>
<!-- GrantList&#45;&gt;Grant -->
<g id="edge17" class="edge"><title>GrantList&#45;&gt;Grant</title>
<path fill="none" stroke="Blue" d="M-176.19,221.786C-191.539,240.714 -216.098,271.001 -233.287,292.2"/>
<polygon fill="Blue" stroke="Blue" points="-230.688,294.551 -239.705,300.114 -236.125,290.142 -230.688,294.551"/>
</g>
<!-- Acronym -->
<g id="node19" class="node"><title>Acronym</title>
<ellipse fill="none" stroke="Red" cx="-385.63" cy="372.42" rx="44.393" ry="18"/>
<text text-anchor="middle" x="-385.63" y="376.12" font-family="Times,serif" font-size="14.00">Acronym</text>
</g>
<!-- Grant&#45;&gt;Acronym -->
<g id="edge18" class="edge"><title>Grant&#45;&gt;Acronym</title>
<path fill="none" stroke="Blue" d="M-277.889,326.956C-296.856,334.959 -323.334,346.133 -345.295,355.4"/>
<polygon fill="Blue" stroke="Blue" points="-344.134,358.709 -354.709,359.372 -346.856,352.259 -344.134,358.709"/>
</g>
<!-- Agency -->
<g id="node20" class="node"><title>Agency</title>
<ellipse fill="none" stroke="Red" cx="-308.589" cy="436.569" rx="38.1938" ry="18"/>
<text text-anchor="middle" x="-308.589" y="440.269" font-family="Times,serif" font-size="14.00">Agency</text>
</g>
<!-- Grant&#45;&gt;Agency -->
<g id="edge19" class="edge"><title>Grant&#45;&gt;Agency</title>
<path fill="none" stroke="Blue" d="M-261.023,333.894C-270.204,353.711 -285.288,386.273 -296.007,409.41"/>
<polygon fill="Blue" stroke="Blue" points="-292.925,411.083 -300.304,418.685 -299.276,408.14 -292.925,411.083"/>
</g>
<!-- Country -->
<g id="node21" class="node"><title>Country</title>
<ellipse fill="none" stroke="Red" cx="-334.341" cy="180.017" rx="39.7935" ry="18"/>
<text text-anchor="middle" x="-334.341" y="183.717" font-family="Times,serif" font-size="14.00">Country</text>
</g>
<!-- Grant&#45;&gt;Country -->
<g id="edge20" class="edge"><title>Grant&#45;&gt;Country</title>
<path fill="none" stroke="Blue" d="M-263.076,299.423C-277.015,276.067 -302.223,233.832 -318.616,206.364"/>
<polygon fill="Blue" stroke="Blue" points="-321.689,208.045 -323.809,197.664 -315.679,204.457 -321.689,208.045"/>
</g>
<!-- GrantID -->
<g id="node22" class="node"><title>GrantID</title>
<ellipse fill="none" stroke="Red" cx="-220.654" cy="478.553" rx="40.0939" ry="18"/>
<text text-anchor="middle" x="-220.654" y="482.253" font-family="Times,serif" font-size="14.00">GrantID</text>
</g>
<!-- Grant&#45;&gt;GrantID -->
<g id="edge21" class="edge"><title>Grant&#45;&gt;GrantID</title>
<path fill="none" stroke="Blue" d="M-249.352,334.394C-243.754,362.515 -232.878,417.146 -226.241,450.486"/>
<polygon fill="Blue" stroke="Blue" points="-222.767,450.011 -224.247,460.502 -229.632,451.378 -222.767,450.011"/>
</g>
<!-- ISOAbbreviation -->
<g id="node24" class="node"><title>ISOAbbreviation</title>
<ellipse fill="none" stroke="Red" cx="380.676" cy="245.46" rx="71.4873" ry="18"/>
<text text-anchor="middle" x="380.676" y="249.16" font-family="Times,serif" font-size="14.00">ISOAbbreviation</text>
</g>
<!-- Journal&#45;&gt;ISOAbbreviation -->
<g id="edge23" class="edge"><title>Journal&#45;&gt;ISOAbbreviation</title>
<path fill="none" stroke="Blue" d="M328.935,186.825C337.557,196.595 348.61,209.121 358.285,220.085"/>
<polygon fill="Blue" stroke="Blue" points="361.04,217.918 365.032,227.732 355.791,222.549 361.04,217.918"/>
</g>
<!-- ISSN -->
<g id="node25" class="node"><title>ISSN</title>
<ellipse fill="none" stroke="Red" cx="424.376" cy="115.026" rx="29.795" ry="18"/>
<text text-anchor="middle" x="424.376" y="118.726" font-family="Times,serif" font-size="14.00">ISSN</text>
</g>
<!-- Journal&#45;&gt;ISSN -->
<g id="edge24" class="edge"><title>Journal&#45;&gt;ISSN</title>
<path fill="none" stroke="Blue" d="M340.014,157.187C355.542,149.427 375.438,139.483 392.009,131.202"/>
<polygon fill="Blue" stroke="Blue" points="390.813,127.887 401.323,126.547 393.942,134.148 390.813,127.887"/>
</g>
<!-- JournalIssue -->
<g id="node26" class="node"><title>JournalIssue</title>
<ellipse fill="none" stroke="Red" cx="355.138" cy="334.509" rx="54.6905" ry="18"/>
<text text-anchor="middle" x="355.138" y="338.209" font-family="Times,serif" font-size="14.00">JournalIssue</text>
</g>
<!-- Journal&#45;&gt;JournalIssue -->
<g id="edge25" class="edge"><title>Journal&#45;&gt;JournalIssue</title>
<path fill="none" stroke="Blue" d="M309.684,188.273C306.567,203.675 303.623,226.277 307.584,245.616 312.238,268.329 324.808,291.338 335.857,308.256"/>
<polygon fill="Blue" stroke="Blue" points="339.062,306.746 341.778,316.987 333.268,310.675 339.062,306.746"/>
</g>
<!-- Title -->
<g id="node31" class="node"><title>Title</title>
<ellipse fill="none" stroke="Red" cx="421.876" cy="177.74" rx="27.0966" ry="18"/>
<text text-anchor="middle" x="421.876" y="181.44" font-family="Times,serif" font-size="14.00">Title</text>
</g>
<!-- Journal&#45;&gt;Title -->
<g id="edge30" class="edge"><title>Journal&#45;&gt;Title</title>
<path fill="none" stroke="Blue" d="M350.339,172.665C361.268,173.44 373.29,174.293 384.309,175.075"/>
<polygon fill="Blue" stroke="Blue" points="384.77,171.599 394.497,175.797 384.274,178.581 384.77,171.599"/>
</g>
<!-- Issue -->
<g id="node27" class="node"><title>Issue</title>
<ellipse fill="none" stroke="Red" cx="524.187" cy="343.956" rx="28.6953" ry="18"/>
<text text-anchor="middle" x="524.187" y="347.656" font-family="Times,serif" font-size="14.00">Issue</text>
</g>
<!-- JournalIssue&#45;&gt;Issue -->
<g id="edge26" class="edge"><title>JournalIssue&#45;&gt;Issue</title>
<path fill="none" stroke="Blue" d="M409.091,337.524C433.783,338.904 462.496,340.508 485.067,341.77"/>
<polygon fill="Blue" stroke="Blue" points="485.499,338.288 495.289,342.341 485.109,345.277 485.499,338.288"/>
</g>
<!-- PubDate -->
<g id="node28" class="node"><title>PubDate</title>
<ellipse fill="none" stroke="Red" cx="350.753" cy="496.804" rx="40.8928" ry="18"/>
<text text-anchor="middle" x="350.753" y="500.504" font-family="Times,serif" font-size="14.00">PubDate</text>
</g>
<!-- JournalIssue&#45;&gt;PubDate -->
<g id="edge27" class="edge"><title>JournalIssue&#45;&gt;PubDate</title>
<path fill="none" stroke="Blue" d="M354.644,352.811C353.884,380.937 352.423,435.017 351.524,468.303"/>
<polygon fill="Blue" stroke="Blue" points="355.022,468.418 351.253,478.32 348.024,468.229 355.022,468.418"/>
</g>
<!-- Volume -->
<g id="node30" class="node"><title>Volume</title>
<ellipse fill="none" stroke="Red" cx="464.119" cy="426.442" rx="39.7935" ry="18"/>
<text text-anchor="middle" x="464.119" y="430.142" font-family="Times,serif" font-size="14.00">Volume</text>
</g>
<!-- JournalIssue&#45;&gt;Volume -->
<g id="edge29" class="edge"><title>JournalIssue&#45;&gt;Volume</title>
<path fill="none" stroke="Blue" d="M375.127,351.371C392.548,366.067 417.961,387.504 437.174,403.712"/>
<polygon fill="Blue" stroke="Blue" points="439.601,401.18 444.988,410.303 435.087,406.531 439.601,401.18"/>
</g>
<!-- MedlineDate -->
<g id="node29" class="node"><title>MedlineDate</title>
<ellipse fill="none" stroke="Red" cx="401.075" cy="633.044" rx="57.3905" ry="18"/>
<text text-anchor="middle" x="401.075" y="636.744" font-family="Times,serif" font-size="14.00">MedlineDate</text>
</g>
<!-- PubDate&#45;&gt;MedlineDate -->
<g id="edge28" class="edge"><title>PubDate&#45;&gt;MedlineDate</title>
<path fill="none" stroke="Blue" d="M357.332,514.615C365.837,537.64 380.74,577.989 390.758,605.111"/>
<polygon fill="Blue" stroke="Blue" points="394.153,604.2 394.334,614.794 387.586,606.626 394.153,604.2"/>
</g>
<!-- MedlinePgn -->
<g id="node34" class="node"><title>MedlinePgn</title>
<ellipse fill="none" stroke="Red" cx="-61.3044" cy="400.608" rx="53.8905" ry="18"/>
<text text-anchor="middle" x="-61.3044" y="404.308" font-family="Times,serif" font-size="14.00">MedlinePgn</text>
</g>
<!-- Pagination&#45;&gt;MedlinePgn -->
<g id="edge33" class="edge"><title>Pagination&#45;&gt;MedlinePgn</title>
<path fill="none" stroke="Blue" d="M-43.8533,251.867C-28.1887,272.597 -6.29006,308.604 -11.4457,342.67 -13.4513,355.923 -21.6351,367.736 -30.8099,377.184"/>
<polygon fill="Blue" stroke="Blue" points="-28.6066,379.917 -38.2814,384.235 -33.4113,374.826 -28.6066,379.917"/>
</g>
<!-- PublicationType -->
<g id="node36" class="node"><title>PublicationType</title>
<ellipse fill="none" stroke="Red" cx="169.59" cy="379.453" rx="68.7879" ry="18"/>
<text text-anchor="middle" x="169.59" y="383.153" font-family="Times,serif" font-size="14.00">PublicationType</text>
</g>
<!-- PublicationTypeList&#45;&gt;PublicationType -->
<g id="edge35" class="edge"><title>PublicationTypeList&#45;&gt;PublicationType</title>
<path fill="none" stroke="Blue" d="M185.173,230.152C182.138,259.235 176.179,316.327 172.574,350.868"/>
<polygon fill="Blue" stroke="Blue" points="176.012,351.643 171.493,361.226 169.05,350.917 176.012,351.643"/>
</g>
<!-- Chemical -->
<g id="node39" class="node"><title>Chemical</title>
<ellipse fill="none" stroke="Red" cx="-44.9498" cy="-427.919" rx="44.6926" ry="18"/>
<text text-anchor="middle" x="-44.9498" y="-424.219" font-family="Times,serif" font-size="14.00">Chemical</text>
</g>
<!-- ChemicalList&#45;&gt;Chemical -->
<g id="edge38" class="edge"><title>ChemicalList&#45;&gt;Chemical</title>
<path fill="none" stroke="Blue" d="M-118.786,-304.836C-104.612,-321.756 -83.3963,-348.574 -68.4535,-374.127 -63.5943,-382.437 -59.1211,-391.937 -55.4107,-400.619"/>
<polygon fill="Blue" stroke="Blue" points="-58.6071,-402.049 -51.5657,-409.965 -52.1335,-399.386 -58.6071,-402.049"/>
</g>
<!-- NameOfSubstance -->
<g id="node40" class="node"><title>NameOfSubstance</title>
<ellipse fill="none" stroke="Red" cx="-94.1336" cy="-562.156" rx="77.1866" ry="18"/>
<text text-anchor="middle" x="-94.1336" y="-558.456" font-family="Times,serif" font-size="14.00">NameOfSubstance</text>
</g>
<!-- Chemical&#45;&gt;NameOfSubstance -->
<g id="edge39" class="edge"><title>Chemical&#45;&gt;NameOfSubstance</title>
<path fill="none" stroke="Blue" d="M-51.481,-445.745C-59.7761,-468.385 -74.1813,-507.701 -83.9312,-534.311"/>
<polygon fill="Blue" stroke="Blue" points="-87.2636,-533.233 -87.4176,-543.826 -80.6908,-535.641 -87.2636,-533.233"/>
</g>
<!-- RegistryNumber -->
<g id="node41" class="node"><title>RegistryNumber</title>
<ellipse fill="none" stroke="Red" cx="68.2939" cy="-555.207" rx="69.5877" ry="18"/>
<text text-anchor="middle" x="68.2939" y="-551.507" font-family="Times,serif" font-size="14.00">RegistryNumber</text>
</g>
<!-- Chemical&#45;&gt;RegistryNumber -->
<g id="edge40" class="edge"><title>Chemical&#45;&gt;RegistryNumber</title>
<path fill="none" stroke="Blue" d="M-29.6772,-445.086C-10.2835,-466.885 23.3403,-504.679 45.7038,-529.816"/>
<polygon fill="Blue" stroke="Blue" points="43.2749,-532.351 52.5367,-537.496 48.5047,-527.698 43.2749,-532.351"/>
</g>
<!-- CommentsCorrections -->
<g id="node44" class="node"><title>CommentsCorrections</title>
<ellipse fill="none" stroke="Red" cx="263.521" cy="-286.007" rx="90.9839" ry="18"/>
<text text-anchor="middle" x="263.521" y="-282.307" font-family="Times,serif" font-size="14.00">CommentsCorrections</text>
</g>
<!-- CommentsCorrectionsList&#45;&gt;CommentsCorrections -->
<g id="edge43" class="edge"><title>CommentsCorrectionsList&#45;&gt;CommentsCorrections</title>
<path fill="none" stroke="Blue" d="M204.461,-211.28C215.393,-225.112 230.696,-244.475 242.986,-260.025"/>
<polygon fill="Blue" stroke="Blue" points="240.51,-262.537 249.457,-268.212 246.002,-258.196 240.51,-262.537"/>
</g>
<!-- Note -->
<g id="node45" class="node"><title>Note</title>
<ellipse fill="none" stroke="Red" cx="298.054" cy="-446.551" rx="27.8951" ry="18"/>
<text text-anchor="middle" x="298.054" y="-442.851" font-family="Times,serif" font-size="14.00">Note</text>
</g>
<!-- CommentsCorrections&#45;&gt;Note -->
<g id="edge44" class="edge"><title>CommentsCorrections&#45;&gt;Note</title>
<path fill="none" stroke="Blue" d="M267.415,-304.111C273.4,-331.934 284.907,-385.43 291.989,-418.357"/>
<polygon fill="Blue" stroke="Blue" points="288.596,-419.226 294.121,-428.266 295.439,-417.754 288.596,-419.226"/>
</g>
<!-- CommentsCorrections&#45;&gt;PMID -->
<g id="edge45" class="edge"><title>CommentsCorrections&#45;&gt;PMID</title>
<path fill="none" stroke="Blue" d="M277.636,-268.18C290.634,-249.482 306.513,-219.287 296.594,-193.498 289.779,-175.78 272.049,-164.984 254.743,-158.478"/>
<polygon fill="Blue" stroke="Blue" points="255.839,-155.154 245.245,-155.289 253.611,-161.79 255.839,-155.154"/>
</g>
<!-- RefSource -->
<g id="node47" class="node"><title>RefSource</title>
<ellipse fill="none" stroke="Red" cx="391.571" cy="-363.911" rx="48.1917" ry="18"/>
<text text-anchor="middle" x="391.571" y="-360.211" font-family="Times,serif" font-size="14.00">RefSource</text>
</g>
<!-- CommentsCorrections&#45;&gt;RefSource -->
<g id="edge46" class="edge"><title>CommentsCorrections&#45;&gt;RefSource</title>
<path fill="none" stroke="Blue" d="M291.939,-303.296C311.323,-315.089 337.09,-330.765 357.564,-343.222"/>
<polygon fill="Blue" stroke="Blue" points="355.905,-346.309 366.268,-348.517 359.544,-340.329 355.905,-346.309"/>
</g>
<!-- Investigator -->
<g id="node53" class="node"><title>Investigator</title>
<ellipse fill="none" stroke="Red" cx="165.073" cy="-331.536" rx="52.7911" ry="18"/>
<text text-anchor="middle" x="165.073" y="-327.836" font-family="Times,serif" font-size="14.00">Investigator</text>
</g>
<!-- InvestigatorList&#45;&gt;Investigator -->
<g id="edge52" class="edge"><title>InvestigatorList&#45;&gt;Investigator</title>
<path fill="none" stroke="Blue" d="M31.4329,-216.463C58.6293,-239.881 107.247,-281.744 137.742,-308.003"/>
<polygon fill="Blue" stroke="Blue" points="135.594,-310.772 145.456,-314.644 140.161,-305.467 135.594,-310.772"/>
</g>
<!-- Keyword -->
<g id="node55" class="node"><title>Keyword</title>
<ellipse fill="none" stroke="Red" cx="57.5571" cy="-375.605" rx="43.5923" ry="18"/>
<text text-anchor="middle" x="57.5571" y="-371.905" font-family="Times,serif" font-size="14.00">Keyword</text>
</g>
<!-- KeywordList&#45;&gt;Keyword -->
<g id="edge54" class="edge"><title>KeywordList&#45;&gt;Keyword</title>
<path fill="none" stroke="Blue" d="M-59.1295,-260.69C-35.5853,-283.877 6.34541,-325.171 33.0104,-351.431"/>
<polygon fill="Blue" stroke="Blue" points="30.8474,-354.213 40.4282,-358.736 35.7591,-349.226 30.8474,-354.213"/>
</g>
<!-- MedlineJournalInfo&#45;&gt;Country -->
<g id="edge56" class="edge"><title>MedlineJournalInfo&#45;&gt;Country</title>
<path fill="none" stroke="Blue" d="M-299.508,62.4827C-306.321,85.4685 -318.179,125.48 -326.142,152.352"/>
<polygon fill="Blue" stroke="Blue" points="-322.788,153.352 -328.985,161.945 -329.5,151.362 -322.788,153.352"/>
</g>
<!-- ISSNLinking -->
<g id="node57" class="node"><title>ISSNLinking</title>
<ellipse fill="none" stroke="Red" cx="-410.701" cy="103.774" rx="57.6901" ry="18"/>
<text text-anchor="middle" x="-410.701" y="107.474" font-family="Times,serif" font-size="14.00">ISSNLinking</text>
</g>
<!-- MedlineJournalInfo&#45;&gt;ISSNLinking -->
<g id="edge57" class="edge"><title>MedlineJournalInfo&#45;&gt;ISSNLinking</title>
<path fill="none" stroke="Blue" d="M-326.634,61.0004C-340.444,68.0271 -356.678,76.2872 -371.179,83.6653"/>
<polygon fill="Blue" stroke="Blue" points="-369.915,86.9492 -380.415,88.3646 -373.09,80.7103 -369.915,86.9492"/>
</g>
<!-- MedlineTA -->
<g id="node58" class="node"><title>MedlineTA</title>
<ellipse fill="none" stroke="Red" cx="-447.589" cy="47.5899" rx="51.9908" ry="18"/>
<text text-anchor="middle" x="-447.589" y="51.2899" font-family="Times,serif" font-size="14.00">MedlineTA</text>
</g>
<!-- MedlineJournalInfo&#45;&gt;MedlineTA -->
<g id="edge58" class="edge"><title>MedlineJournalInfo&#45;&gt;MedlineTA</title>
<path fill="none" stroke="Blue" d="M-375.374,46.1284C-378.646,46.1946 -381.908,46.2606 -385.134,46.3259"/>
<polygon fill="Blue" stroke="Blue" points="-385.223,49.8283 -395.292,46.5315 -385.364,42.8298 -385.223,49.8283"/>
</g>
<!-- NlmUniqueID -->
<g id="node59" class="node"><title>NlmUniqueID</title>
<ellipse fill="none" stroke="Red" cx="-456.939" cy="-20.1985" rx="61.99" ry="18"/>
<text text-anchor="middle" x="-456.939" y="-16.4985" font-family="Times,serif" font-size="14.00">NlmUniqueID</text>
</g>
<!-- MedlineJournalInfo&#45;&gt;NlmUniqueID -->
<g id="edge59" class="edge"><title>MedlineJournalInfo&#45;&gt;NlmUniqueID</title>
<path fill="none" stroke="Blue" d="M-333.991,28.6617C-357.255,19.4166 -386.713,7.70976 -410.962,-1.9269"/>
<polygon fill="Blue" stroke="Blue" points="-412.316,1.30128 -420.316,-5.64447 -409.731,-5.20386 -412.316,1.30128"/>
</g>
<!-- MeshHeading -->
<g id="node61" class="node"><title>MeshHeading</title>
<ellipse fill="none" stroke="Red" cx="-336.562" cy="-332.24" rx="60.3893" ry="18"/>
<text text-anchor="middle" x="-336.562" y="-328.54" font-family="Times,serif" font-size="14.00">MeshHeading</text>
</g>
<!-- MeshHeadingList&#45;&gt;MeshHeading -->
<g id="edge61" class="edge"><title>MeshHeadingList&#45;&gt;MeshHeading</title>
<path fill="none" stroke="Blue" d="M-418.266,-200.806C-402.082,-226.84 -372.053,-275.147 -353.255,-305.387"/>
<polygon fill="Blue" stroke="Blue" points="-356.061,-307.503 -347.809,-314.148 -350.116,-303.807 -356.061,-307.503"/>
</g>
<!-- DescriptorName -->
<g id="node62" class="node"><title>DescriptorName</title>
<ellipse fill="none" stroke="Red" cx="-320.219" cy="-497.828" rx="69.5877" ry="18"/>
<text text-anchor="middle" x="-320.219" y="-494.128" font-family="Times,serif" font-size="14.00">DescriptorName</text>
</g>
<!-- MeshHeading&#45;&gt;DescriptorName -->
<g id="edge62" class="edge"><title>MeshHeading&#45;&gt;DescriptorName</title>
<path fill="none" stroke="Blue" d="M-334.782,-350.276C-331.945,-379.018 -326.377,-435.441 -323.007,-469.577"/>
<polygon fill="Blue" stroke="Blue" points="-326.462,-470.206 -321.997,-479.814 -319.496,-469.518 -326.462,-470.206"/>
</g>
<!-- QualifierName -->
<g id="node63" class="node"><title>QualifierName</title>
<ellipse fill="none" stroke="Red" cx="-456.566" cy="-419.904" rx="63.8893" ry="18"/>
<text text-anchor="middle" x="-456.566" y="-416.204" font-family="Times,serif" font-size="14.00">QualifierName</text>
</g>
<!-- MeshHeading&#45;&gt;QualifierName -->
<g id="edge63" class="edge"><title>MeshHeading&#45;&gt;QualifierName</title>
<path fill="none" stroke="Blue" d="M-359.416,-348.935C-378.064,-362.558 -404.604,-381.946 -425.234,-397.016"/>
<polygon fill="Blue" stroke="Blue" points="-427.377,-394.247 -433.388,-402.973 -423.248,-399.9 -427.377,-394.247"/>
</g>
<!-- OtherAbstract&#45;&gt;AbstractText -->
<g id="edge65" class="edge"><title>OtherAbstract&#45;&gt;AbstractText</title>
<path fill="none" stroke="Blue" d="M28.0698,9.68989C37.0571,12.159 46.5888,14.7776 55.8334,17.3174"/>
<polygon fill="Blue" stroke="Blue" points="56.9972,14.0073 65.7127,20.0315 55.1427,20.7572 56.9972,14.0073"/>
</g>
<!-- PersonalNameSubject -->
<g id="node67" class="node"><title>PersonalNameSubject</title>
<ellipse fill="none" stroke="Red" cx="-159.092" cy="-373.944" rx="89.0842" ry="18"/>
<text text-anchor="middle" x="-159.092" y="-370.244" font-family="Times,serif" font-size="14.00">PersonalNameSubject</text>
</g>
<!-- PersonalNameSubjectList&#45;&gt;PersonalNameSubject -->
<g id="edge69" class="edge"><title>PersonalNameSubjectList&#45;&gt;PersonalNameSubject</title>
<path fill="none" stroke="Blue" d="M-235.647,-220.978C-220.629,-250.986 -190.356,-311.474 -172.712,-346.729"/>
<polygon fill="Blue" stroke="Blue" points="-175.699,-348.582 -168.093,-355.958 -169.439,-345.449 -175.699,-348.582"/>
</g>
<!-- ArticleIdList -->
<g id="node69" class="node"><title>ArticleIdList</title>
<ellipse fill="none" stroke="Red" cx="-650.758" cy="-45.8374" rx="55.7903" ry="18"/>
<text text-anchor="middle" x="-650.758" y="-42.1374" font-family="Times,serif" font-size="14.00">ArticleIdList</text>
</g>
<!-- PubmedData&#45;&gt;ArticleIdList -->
<g id="edge71" class="edge"><title>PubmedData&#45;&gt;ArticleIdList</title>
<path fill="none" stroke="Blue" d="M-550.779,-117.47C-570.214,-103.545 -598.152,-83.5285 -619.556,-68.1926"/>
<polygon fill="Blue" stroke="Blue" points="-617.532,-65.337 -627.7,-62.3579 -621.609,-71.0273 -617.532,-65.337"/>
</g>
<!-- History -->
<g id="node71" class="node"><title>History</title>
<ellipse fill="none" stroke="Red" cx="-644.738" cy="-187.29" rx="37.0935" ry="18"/>
<text text-anchor="middle" x="-644.738" y="-183.59" font-family="Times,serif" font-size="14.00">History</text>
</g>
<!-- PubmedData&#45;&gt;History -->
<g id="edge73" class="edge"><title>PubmedData&#45;&gt;History</title>
<path fill="none" stroke="Blue" d="M-560.241,-148.891C-575.151,-155.667 -592.872,-163.72 -608.225,-170.697"/>
<polygon fill="Blue" stroke="Blue" points="-609.777,-167.558 -617.433,-174.881 -606.881,-173.93 -609.777,-167.558"/>
</g>
<!-- PublicationStatus -->
<g id="node73" class="node"><title>PublicationStatus</title>
<ellipse fill="none" stroke="Red" cx="-583.106" cy="-271.259" rx="72.2875" ry="18"/>
<text text-anchor="middle" x="-583.106" y="-267.559" font-family="Times,serif" font-size="14.00">PublicationStatus</text>
</g>
<!-- PubmedData&#45;&gt;PublicationStatus -->
<g id="edge75" class="edge"><title>PubmedData&#45;&gt;PublicationStatus</title>
<path fill="none" stroke="Blue" d="M-534.871,-152.001C-544.342,-175.418 -561.012,-216.632 -572.059,-243.945"/>
<polygon fill="Blue" stroke="Blue" points="-575.345,-242.737 -575.85,-253.319 -568.856,-245.361 -575.345,-242.737"/>
</g>
<!-- ArticleId -->
<g id="node70" class="node"><title>ArticleId</title>
<ellipse fill="none" stroke="Red" cx="-780.521" cy="-5.6168" rx="42.4939" ry="18"/>
<text text-anchor="middle" x="-780.521" y="-1.9168" font-family="Times,serif" font-size="14.00">ArticleId</text>
</g>
<!-- ArticleIdList&#45;&gt;ArticleId -->
<g id="edge72" class="edge"><title>ArticleIdList&#45;&gt;ArticleId</title>
<path fill="none" stroke="Blue" d="M-691.104,-33.3318C-705.491,-28.8725 -721.766,-23.8282 -736.45,-19.2769"/>
<polygon fill="Blue" stroke="Blue" points="-735.731,-15.8355 -746.319,-16.218 -737.803,-22.5217 -735.731,-15.8355"/>
</g>
<!-- PubMedPubDate -->
<g id="node72" class="node"><title>PubMedPubDate</title>
<ellipse fill="none" stroke="Red" cx="-764.181" cy="-258.264" rx="71.4873" ry="18"/>
<text text-anchor="middle" x="-764.181" y="-254.564" font-family="Times,serif" font-size="14.00">PubMedPubDate</text>
</g>
<!-- History&#45;&gt;PubMedPubDate -->
<g id="edge74" class="edge"><title>History&#45;&gt;PubMedPubDate</title>
<path fill="none" stroke="Blue" d="M-668.336,-201.312C-685.122,-211.286 -708.006,-224.885 -727.204,-236.292"/>
<polygon fill="Blue" stroke="Blue" points="-729.2,-233.407 -736.009,-241.524 -725.624,-239.425 -729.2,-233.407"/>
</g>
</g>
</svg>
