<?xml version="1.0" encoding="UTF-8" standalone="no"?>
<!DOCTYPE svg PUBLIC "-//W3C//DTD SVG 1.1//EN"
 "http://www.w3.org/Graphics/SVG/1.1/DTD/svg11.dtd">
<!-- Generated by graphviz version 2.38.0 (20140413.2041)
 -->
<!-- Title: G Pages: 1 -->
<svg width="1366pt" height="772pt"
 viewBox="0.00 0.00 1366.00 772.00" xmlns="http://www.w3.org/2000/svg" xmlns:xlink="http://www.w3.org/1999/xlink">
<g id="graph0" class="graph" transform="scale(1 1) rotate(0) translate(4 768)">
<title>G</title>
<polygon fill="white" stroke="none" points="-4,4 -4,-768 1362,-768 1362,4 -4,4"/>
<g id="clust1" class="cluster"><title>cluster_north_america</title>
<polygon fill="lightgrey" stroke="black" points="246,-465 246,-756 634,-756 634,-465 246,-465"/>
<text text-anchor="middle" x="440" y="-740.8" font-family="Times,serif" font-size="14.00">North America</text>
</g>
<g id="clust6" class="cluster"><title>cluster_south_america</title>
<polygon fill="lightgrey" stroke="black" points="8,-235 8,-457 160,-457 160,-235 8,-235"/>
<text text-anchor="middle" x="84" y="-441.8" font-family="Times,serif" font-size="14.00">South America</text>
</g>
<g id="clust10" class="cluster"><title>cluster_africa</title>
<polygon fill="lightgrey" stroke="black" points="168,-80 168,-310 422,-310 422,-80 168,-80"/>
<text text-anchor="middle" x="295" y="-294.8" font-family="Times,serif" font-size="14.00">Africa</text>
</g>
<g id="clust14" class="cluster"><title>cluster_europa</title>
<polygon fill="lightgrey" stroke="black" points="966,-80 966,-310 1350,-310 1350,-80 966,-80"/>
<text text-anchor="middle" x="1158" y="-294.8" font-family="Times,serif" font-size="14.00">Europe</text>
</g>
<g id="clust18" class="cluster"><title>cluster_australia</title>
<polygon fill="lightgrey" stroke="black" points="631,-8 631,-155 958,-155 958,-8 631,-8"/>
<text text-anchor="middle" x="794.5" y="-139.8" font-family="Times,serif" font-size="14.00">Australia</text>
</g>
<g id="clust21" class="cluster"><title>cluster_asia</title>
<polygon fill="lightgrey" stroke="black" points="486,-163 486,-457 958,-457 958,-163 486,-163"/>
<text text-anchor="middle" x="722" y="-441.8" font-family="Times,serif" font-size="14.00">Asia</text>
</g>
<!-- NWT -->
<g id="node1" class="node"><title>NWT</title>
<ellipse fill="yellow" stroke="yellow" cx="457" cy="-707" rx="81.4863" ry="18"/>
<text text-anchor="middle" x="457" y="-703.3" font-family="Times,serif" font-size="14.00">Northwest Territory</text>
</g>
<!-- QC -->
<g id="node2" class="node"><title>QC</title>
<ellipse fill="yellow" stroke="yellow" cx="320" cy="-635" rx="37.8943" ry="18"/>
<text text-anchor="middle" x="320" y="-631.3" font-family="Times,serif" font-size="14.00">Quebec</text>
</g>
<!-- EUS -->
<g id="node4" class="node"><title>EUS</title>
<ellipse fill="yellow" stroke="yellow" cx="341" cy="-563" rx="87.1846" ry="18"/>
<text text-anchor="middle" x="341" y="-559.3" font-family="Times,serif" font-size="14.00">Eastern United States</text>
</g>
<!-- QC&#45;&gt;EUS -->
<g id="edge9" class="edge"><title>QC&#45;&gt;EUS</title>
<path fill="none" stroke="black" d="M325.084,-617.055C328.337,-606.211 332.545,-592.183 335.817,-581.275"/>
</g>
<!-- Greenland -->
<g id="node7" class="node"><title>Greenland</title>
<ellipse fill="yellow" stroke="yellow" cx="310" cy="-707" rx="47.3916" ry="18"/>
<text text-anchor="middle" x="310" y="-703.3" font-family="Times,serif" font-size="14.00">Greenland</text>
</g>
<!-- QC&#45;&gt;Greenland -->
<g id="edge10" class="edge"><title>QC&#45;&gt;Greenland</title>
<path fill="none" stroke="black" d="M317.557,-653.104C316.012,-663.917 314.022,-677.846 312.472,-688.697"/>
</g>
<!-- Ontario -->
<g id="node9" class="node"><title>Ontario</title>
<ellipse fill="yellow" stroke="yellow" cx="413" cy="-635" rx="37.8943" ry="18"/>
<text text-anchor="middle" x="413" y="-631.3" font-family="Times,serif" font-size="14.00">Ontario</text>
</g>
<!-- QC&#45;&gt;Ontario -->
<g id="edge8" class="edge"><title>QC&#45;&gt;Ontario</title>
<path fill="none" stroke="black" d="M357.781,-635C363.533,-635 369.285,-635 375.037,-635"/>
</g>
<!-- WUS -->
<g id="node3" class="node"><title>WUS</title>
<ellipse fill="yellow" stroke="yellow" cx="536" cy="-563" rx="90.1842" ry="18"/>
<text text-anchor="middle" x="536" y="-559.3" font-family="Times,serif" font-size="14.00">Western United States</text>
</g>
<!-- EUS&#45;&gt;WUS -->
<g id="edge12" class="edge"><title>EUS&#45;&gt;WUS</title>
<path fill="none" stroke="black" d="M428.217,-563C433.971,-563 439.725,-563 445.479,-563"/>
</g>
<!-- EUS&#45;&gt;Ontario -->
<g id="edge11" class="edge"><title>EUS&#45;&gt;Ontario</title>
<path fill="none" stroke="black" d="M358.191,-580.714C369.978,-592.173 385.504,-607.267 397.021,-618.465"/>
</g>
<!-- CentralAmerica -->
<g id="node5" class="node"><title>CentralAmerica</title>
<ellipse fill="yellow" stroke="yellow" cx="341" cy="-491" rx="69.5877" ry="18"/>
<text text-anchor="middle" x="341" y="-487.3" font-family="Times,serif" font-size="14.00">Central America</text>
</g>
<!-- CentralAmerica&#45;&gt;WUS -->
<g id="edge6" class="edge"><title>CentralAmerica&#45;&gt;WUS</title>
<path fill="none" stroke="black" d="M380.108,-506.039C413.154,-517.902 460.371,-534.851 494.168,-546.983"/>
</g>
<!-- CentralAmerica&#45;&gt;EUS -->
<g id="edge7" class="edge"><title>CentralAmerica&#45;&gt;EUS</title>
<path fill="none" stroke="black" d="M341,-509.104C341,-519.917 341,-533.846 341,-544.697"/>
</g>
<!-- Venezuala -->
<g id="node10" class="node"><title>Venezuala</title>
<ellipse fill="orangered" stroke="orangered" cx="104" cy="-408" rx="48.1917" ry="18"/>
<text text-anchor="middle" x="104" y="-404.3" font-family="Times,serif" font-size="14.00">Venezuala</text>
</g>
<!-- CentralAmerica&#45;&gt;Venezuala -->
<g id="edge69" class="edge"><title>CentralAmerica&#45;&gt;Venezuala</title>
<path fill="none" stroke="black" d="M300.796,-476.259C255.102,-460.642 181.293,-435.417 138.236,-420.701"/>
</g>
<!-- Alaska -->
<g id="node6" class="node"><title>Alaska</title>
<ellipse fill="yellow" stroke="yellow" cx="591" cy="-707" rx="35.194" ry="18"/>
<text text-anchor="middle" x="591" y="-703.3" font-family="Times,serif" font-size="14.00">Alaska</text>
</g>
<!-- Alaska&#45;&gt;NWT -->
<g id="edge2" class="edge"><title>Alaska&#45;&gt;NWT</title>
<path fill="none" stroke="black" d="M555.656,-707C549.902,-707 544.148,-707 538.395,-707"/>
</g>
<!-- Alberta -->
<g id="node8" class="node"><title>Alberta</title>
<ellipse fill="yellow" stroke="yellow" cx="516" cy="-635" rx="37.0935" ry="18"/>
<text text-anchor="middle" x="516" y="-631.3" font-family="Times,serif" font-size="14.00">Alberta</text>
</g>
<!-- Alaska&#45;&gt;Alberta -->
<g id="edge1" class="edge"><title>Alaska&#45;&gt;Alberta</title>
<path fill="none" stroke="black" d="M574.726,-690.811C562.232,-679.15 545.051,-663.115 532.501,-651.401"/>
</g>
<!-- Kamchatka -->
<g id="node38" class="node"><title>Kamchatka</title>
<ellipse fill="green" stroke="green" cx="545" cy="-336" rx="51.1914" ry="18"/>
<text text-anchor="middle" x="545" y="-332.3" font-family="Times,serif" font-size="14.00">Kamchatka</text>
</g>
<!-- Alaska&#45;&gt;Kamchatka -->
<g id="edge67" class="edge"><title>Alaska&#45;&gt;Kamchatka</title>
<path fill="none" stroke="black" d="M603.447,-689.985C621.807,-664.71 654,-613.355 654,-564 654,-564 654,-564 654,-490 654,-430.153 597.996,-377.491 566.275,-352.463"/>
</g>
<!-- Greenland&#45;&gt;NWT -->
<g id="edge13" class="edge"><title>Greenland&#45;&gt;NWT</title>
<path fill="none" stroke="black" d="M357.66,-707C363.61,-707 369.56,-707 375.51,-707"/>
</g>
<!-- Greenland&#45;&gt;Ontario -->
<g id="edge14" class="edge"><title>Greenland&#45;&gt;Ontario</title>
<path fill="none" stroke="black" d="M332.096,-690.983C349.829,-678.932 374.558,-662.126 391.995,-650.275"/>
</g>
<!-- Iceland -->
<g id="node24" class="node"><title>Iceland</title>
<ellipse fill="lightblue" stroke="lightblue" cx="1248" cy="-261" rx="36.2938" ry="18"/>
<text text-anchor="middle" x="1248" y="-257.3" font-family="Times,serif" font-size="14.00">Iceland</text>
</g>
<!-- Greenland&#45;&gt;Iceland -->
<g id="edge73" class="edge"><title>Greenland&#45;&gt;Iceland</title>
<path fill="none" stroke="black" d="M345.111,-694.886C352.313,-692.787 359.872,-690.716 367,-689 452.684,-668.376 478.317,-680.647 562,-653 749.98,-590.896 788.42,-552.202 962,-457 1072,-396.666 1105.65,-389.152 1203,-310 1214.7,-300.488 1226.3,-288.023 1234.79,-278.18"/>
</g>
<!-- Alberta&#45;&gt;NWT -->
<g id="edge3" class="edge"><title>Alberta&#45;&gt;NWT</title>
<path fill="none" stroke="black" d="M502.658,-651.829C493.31,-662.92 480.831,-677.726 471.282,-689.055"/>
</g>
<!-- Alberta&#45;&gt;WUS -->
<g id="edge5" class="edge"><title>Alberta&#45;&gt;WUS</title>
<path fill="none" stroke="black" d="M520.841,-617.055C523.94,-606.211 527.948,-592.183 531.064,-581.275"/>
</g>
<!-- Alberta&#45;&gt;Ontario -->
<g id="edge4" class="edge"><title>Alberta&#45;&gt;Ontario</title>
<path fill="none" stroke="black" d="M478.827,-635C469.492,-635 460.156,-635 450.82,-635"/>
</g>
<!-- Ontario&#45;&gt;WUS -->
<g id="edge15" class="edge"><title>Ontario&#45;&gt;WUS</title>
<path fill="none" stroke="black" d="M436.425,-620.669C456.638,-609.165 485.899,-592.513 507.473,-580.235"/>
</g>
<!-- Brazil -->
<g id="node11" class="node"><title>Brazil</title>
<ellipse fill="orangered" stroke="orangered" cx="120" cy="-336" rx="32.4942" ry="18"/>
<text text-anchor="middle" x="120" y="-332.3" font-family="Times,serif" font-size="14.00">Brazil</text>
</g>
<!-- Brazil&#45;&gt;Venezuala -->
<g id="edge18" class="edge"><title>Brazil&#45;&gt;Venezuala</title>
<path fill="none" stroke="black" d="M116.051,-354.275C113.558,-365.183 110.352,-379.211 107.873,-390.055"/>
</g>
<!-- NorthAfrica -->
<g id="node16" class="node"><title>NorthAfrica</title>
<ellipse fill="orange" stroke="orange" cx="278" cy="-261" rx="53.8905" ry="18"/>
<text text-anchor="middle" x="278" y="-257.3" font-family="Times,serif" font-size="14.00">NorthAfrica</text>
</g>
<!-- Brazil&#45;&gt;NorthAfrica -->
<g id="edge68" class="edge"><title>Brazil&#45;&gt;NorthAfrica</title>
<path fill="none" stroke="black" d="M144.341,-323.754C172.128,-310.916 217.61,-289.902 247.677,-276.01"/>
</g>
<!-- Peru -->
<g id="node12" class="node"><title>Peru</title>
<ellipse fill="orangered" stroke="orangered" cx="43" cy="-336" rx="27" ry="18"/>
<text text-anchor="middle" x="43" y="-332.3" font-family="Times,serif" font-size="14.00">Peru</text>
</g>
<!-- Peru&#45;&gt;Venezuala -->
<g id="edge19" class="edge"><title>Peru&#45;&gt;Venezuala</title>
<path fill="none" stroke="black" d="M56.2361,-352.189C66.1585,-363.575 79.7158,-379.133 89.8521,-390.765"/>
</g>
<!-- Argentina -->
<g id="node13" class="node"><title>Argentina</title>
<ellipse fill="orangered" stroke="orangered" cx="84" cy="-261" rx="46.2923" ry="18"/>
<text text-anchor="middle" x="84" y="-257.3" font-family="Times,serif" font-size="14.00">Argentina</text>
</g>
<!-- Argentina&#45;&gt;Brazil -->
<g id="edge16" class="edge"><title>Argentina&#45;&gt;Brazil</title>
<path fill="none" stroke="black" d="M92.2612,-278.752C98.1322,-290.657 105.981,-306.572 111.831,-318.435"/>
</g>
<!-- Argentina&#45;&gt;Peru -->
<g id="edge17" class="edge"><title>Argentina&#45;&gt;Peru</title>
<path fill="none" stroke="black" d="M74.642,-278.662C67.8816,-290.699 58.7993,-306.87 52.0992,-318.799"/>
</g>
<!-- SouthAfrica -->
<g id="node14" class="node"><title>SouthAfrica</title>
<ellipse fill="orange" stroke="orange" cx="232" cy="-106" rx="55.7903" ry="18"/>
<text text-anchor="middle" x="232" y="-102.3" font-family="Times,serif" font-size="14.00">South Africa</text>
</g>
<!-- EastAfrica -->
<g id="node15" class="node"><title>EastAfrica</title>
<ellipse fill="orange" stroke="orange" cx="313" cy="-189" rx="50.8918" ry="18"/>
<text text-anchor="middle" x="313" y="-185.3" font-family="Times,serif" font-size="14.00">East Africa</text>
</g>
<!-- EastAfrica&#45;&gt;SouthAfrica -->
<g id="edge25" class="edge"><title>EastAfrica&#45;&gt;SouthAfrica</title>
<path fill="none" stroke="black" d="M296.608,-171.608C282.555,-157.555 262.413,-137.413 248.367,-123.367"/>
</g>
<!-- EastAfrica&#45;&gt;NorthAfrica -->
<g id="edge24" class="edge"><title>EastAfrica&#45;&gt;NorthAfrica</title>
<path fill="none" stroke="black" d="M304.605,-206.789C299.118,-217.764 291.975,-232.049 286.473,-243.055"/>
</g>
<!-- Egypt -->
<g id="node17" class="node"><title>Egypt</title>
<ellipse fill="orange" stroke="orange" cx="382" cy="-261" rx="31.6951" ry="18"/>
<text text-anchor="middle" x="382" y="-257.3" font-family="Times,serif" font-size="14.00">Egypt</text>
</g>
<!-- EastAfrica&#45;&gt;Egypt -->
<g id="edge23" class="edge"><title>EastAfrica&#45;&gt;Egypt</title>
<path fill="none" stroke="black" d="M328.903,-206.134C340.379,-217.776 355.772,-233.391 367.028,-244.811"/>
</g>
<!-- Madagascar -->
<g id="node19" class="node"><title>Madagascar</title>
<ellipse fill="orange" stroke="orange" cx="360" cy="-106" rx="53.8905" ry="18"/>
<text text-anchor="middle" x="360" y="-102.3" font-family="Times,serif" font-size="14.00">Madagascar</text>
</g>
<!-- EastAfrica&#45;&gt;Madagascar -->
<g id="edge26" class="edge"><title>EastAfrica&#45;&gt;Madagascar</title>
<path fill="none" stroke="black" d="M322.738,-171.217C330.805,-157.315 342.211,-137.657 350.274,-123.762"/>
</g>
<!-- SouthernEurope -->
<g id="node22" class="node"><title>SouthernEurope</title>
<ellipse fill="lightblue" stroke="lightblue" cx="1044" cy="-106" rx="70.3881" ry="18"/>
<text text-anchor="middle" x="1044" y="-102.3" font-family="Times,serif" font-size="14.00">Southern Europe</text>
</g>
<!-- EastAfrica&#45;&gt;SouthernEurope -->
<g id="edge70" class="edge"><title>EastAfrica&#45;&gt;SouthernEurope</title>
<path fill="none" stroke="black" d="M342.444,-174.146C353.362,-169.69 366.009,-165.311 378,-163 441.722,-150.716 899.485,-172.412 962,-155 984.565,-148.715 1007.33,-134.634 1023.12,-123.339"/>
</g>
<!-- WesternEurope -->
<g id="node21" class="node"><title>WesternEurope</title>
<ellipse fill="lightblue" stroke="lightblue" cx="1200" cy="-106" rx="68.4888" ry="18"/>
<text text-anchor="middle" x="1200" y="-102.3" font-family="Times,serif" font-size="14.00">Western Europe</text>
</g>
<!-- NorthAfrica&#45;&gt;WesternEurope -->
<g id="edge77" class="edge"><title>NorthAfrica&#45;&gt;WesternEurope</title>
<path fill="none" stroke="black" d="M311.169,-246.732C348.429,-231.805 404.35,-209.324 409,-207 442.886,-190.066 445.567,-173.376 482,-163 550.504,-143.49 1054.64,-175.023 1123,-155 1144.47,-148.712 1165.81,-134.631 1180.56,-123.337"/>
</g>
<!-- NorthAfrica&#45;&gt;SouthernEurope -->
<g id="edge76" class="edge"><title>NorthAfrica&#45;&gt;SouthernEurope</title>
<path fill="none" stroke="black" d="M308.466,-245.837C327.811,-236.174 352.897,-222.374 373,-207 394.72,-190.389 390.877,-173.793 416,-163 443.873,-151.025 932.78,-163.154 962,-155 984.562,-148.704 1007.32,-134.624 1023.12,-123.333"/>
</g>
<!-- Egypt&#45;&gt;NorthAfrica -->
<g id="edge28" class="edge"><title>Egypt&#45;&gt;NorthAfrica</title>
<path fill="none" stroke="black" d="M349.989,-261C344.003,-261 338.017,-261 332.031,-261"/>
</g>
<!-- Egypt&#45;&gt;SouthernEurope -->
<g id="edge72" class="edge"><title>Egypt&#45;&gt;SouthernEurope</title>
<path fill="none" stroke="black" d="M392.576,-243.842C408.687,-220.865 441.79,-179.69 482,-163 506.633,-152.776 936.318,-162.194 962,-155 984.556,-148.682 1007.32,-134.604 1023.12,-123.319"/>
</g>
<!-- MiddleEast -->
<g id="node31" class="node"><title>MiddleEast</title>
<ellipse fill="green" stroke="green" cx="818" cy="-189" rx="53.8905" ry="18"/>
<text text-anchor="middle" x="818" y="-185.3" font-family="Times,serif" font-size="14.00">Middle East</text>
</g>
<!-- Egypt&#45;&gt;MiddleEast -->
<g id="edge71" class="edge"><title>Egypt&#45;&gt;MiddleEast</title>
<path fill="none" stroke="black" d="M409.789,-251.918C429.729,-246.398 457.323,-239.327 482,-235 602.137,-213.933 635.064,-229.182 755,-207 762.798,-205.558 771.042,-203.633 778.904,-201.598"/>
</g>
<!-- Congo -->
<g id="node18" class="node"><title>Congo</title>
<ellipse fill="orange" stroke="orange" cx="210" cy="-189" rx="34.394" ry="18"/>
<text text-anchor="middle" x="210" y="-185.3" font-family="Times,serif" font-size="14.00">Congo</text>
</g>
<!-- Congo&#45;&gt;SouthAfrica -->
<g id="edge22" class="edge"><title>Congo&#45;&gt;SouthAfrica</title>
<path fill="none" stroke="black" d="M214.666,-170.822C218.399,-157.076 223.609,-137.893 227.341,-124.153"/>
</g>
<!-- Congo&#45;&gt;EastAfrica -->
<g id="edge20" class="edge"><title>Congo&#45;&gt;EastAfrica</title>
<path fill="none" stroke="black" d="M244.602,-189C250.48,-189 256.358,-189 262.236,-189"/>
</g>
<!-- Congo&#45;&gt;NorthAfrica -->
<g id="edge21" class="edge"><title>Congo&#45;&gt;NorthAfrica</title>
<path fill="none" stroke="black" d="M225.218,-205.666C236.235,-217.007 251.086,-232.294 262.229,-243.765"/>
</g>
<!-- Madagascar&#45;&gt;SouthAfrica -->
<g id="edge27" class="edge"><title>Madagascar&#45;&gt;SouthAfrica</title>
<path fill="none" stroke="black" d="M306,-106C300,-106 294,-106 288,-106"/>
</g>
<!-- GreatBritain -->
<g id="node20" class="node"><title>GreatBritain</title>
<ellipse fill="lightblue" stroke="lightblue" cx="1285" cy="-189" rx="57.3905" ry="18"/>
<text text-anchor="middle" x="1285" y="-185.3" font-family="Times,serif" font-size="14.00">Great Britain</text>
</g>
<!-- GreatBritain&#45;&gt;WesternEurope -->
<g id="edge32" class="edge"><title>GreatBritain&#45;&gt;WesternEurope</title>
<path fill="none" stroke="black" d="M1267.8,-171.608C1253.15,-157.648 1232.19,-137.678 1217.47,-123.645"/>
</g>
<!-- NorthernEurope -->
<g id="node23" class="node"><title>NorthernEurope</title>
<ellipse fill="lightblue" stroke="lightblue" cx="1140" cy="-189" rx="70.3881" ry="18"/>
<text text-anchor="middle" x="1140" y="-185.3" font-family="Times,serif" font-size="14.00">Northern Europe</text>
</g>
<!-- GreatBritain&#45;&gt;NorthernEurope -->
<g id="edge30" class="edge"><title>GreatBritain&#45;&gt;NorthernEurope</title>
<path fill="none" stroke="black" d="M1227.76,-189C1221.92,-189 1216.08,-189 1210.23,-189"/>
</g>
<!-- GreatBritain&#45;&gt;Iceland -->
<g id="edge29" class="edge"><title>GreatBritain&#45;&gt;Iceland</title>
<path fill="none" stroke="black" d="M1276.04,-206.956C1270.19,-218.027 1262.58,-232.414 1256.77,-243.411"/>
</g>
<!-- Scandinavia -->
<g id="node25" class="node"><title>Scandinavia</title>
<ellipse fill="lightblue" stroke="lightblue" cx="1140" cy="-261" rx="53.8905" ry="18"/>
<text text-anchor="middle" x="1140" y="-257.3" font-family="Times,serif" font-size="14.00">Scandinavia</text>
</g>
<!-- GreatBritain&#45;&gt;Scandinavia -->
<g id="edge31" class="edge"><title>GreatBritain&#45;&gt;Scandinavia</title>
<path fill="none" stroke="black" d="M1255.2,-204.385C1230.08,-216.512 1194.33,-233.77 1169.34,-245.834"/>
</g>
<!-- Ukraine -->
<g id="node26" class="node"><title>Ukraine</title>
<ellipse fill="lightblue" stroke="lightblue" cx="1013" cy="-189" rx="38.9931" ry="18"/>
<text text-anchor="middle" x="1013" y="-185.3" font-family="Times,serif" font-size="14.00">Ukraine</text>
</g>
<!-- SouthernEurope&#45;&gt;Ukraine -->
<g id="edge38" class="edge"><title>SouthernEurope&#45;&gt;Ukraine</title>
<path fill="none" stroke="black" d="M1037.48,-124.04C1032.17,-137.919 1024.71,-157.408 1019.42,-171.217"/>
</g>
<!-- NorthernEurope&#45;&gt;WesternEurope -->
<g id="edge37" class="edge"><title>NorthernEurope&#45;&gt;WesternEurope</title>
<path fill="none" stroke="black" d="M1152.43,-171.217C1162.73,-157.315 1177.29,-137.657 1187.58,-123.762"/>
</g>
<!-- NorthernEurope&#45;&gt;SouthernEurope -->
<g id="edge34" class="edge"><title>NorthernEurope&#45;&gt;SouthernEurope</title>
<path fill="none" stroke="black" d="M1120.57,-171.608C1103.92,-157.555 1080.05,-137.413 1063.4,-123.367"/>
</g>
<!-- NorthernEurope&#45;&gt;Scandinavia -->
<g id="edge35" class="edge"><title>NorthernEurope&#45;&gt;Scandinavia</title>
<path fill="none" stroke="black" d="M1140,-207.104C1140,-217.917 1140,-231.846 1140,-242.697"/>
</g>
<!-- NorthernEurope&#45;&gt;Ukraine -->
<g id="edge36" class="edge"><title>NorthernEurope&#45;&gt;Ukraine</title>
<path fill="none" stroke="black" d="M1069.68,-189C1063.85,-189 1058.02,-189 1052.19,-189"/>
</g>
<!-- Iceland&#45;&gt;Scandinavia -->
<g id="edge33" class="edge"><title>Iceland&#45;&gt;Scandinavia</title>
<path fill="none" stroke="black" d="M1211.3,-261C1205.53,-261 1199.77,-261 1194,-261"/>
</g>
<!-- Scandinavia&#45;&gt;Ukraine -->
<g id="edge39" class="edge"><title>Scandinavia&#45;&gt;Ukraine</title>
<path fill="none" stroke="black" d="M1113.38,-245.326C1090.83,-232.898 1058.79,-215.237 1037.01,-203.237"/>
</g>
<!-- Ural -->
<g id="node32" class="node"><title>Ural</title>
<ellipse fill="green" stroke="green" cx="901" cy="-408" rx="27" ry="18"/>
<text text-anchor="middle" x="901" y="-404.3" font-family="Times,serif" font-size="14.00">Ural</text>
</g>
<!-- Ukraine&#45;&gt;Ural -->
<g id="edge79" class="edge"><title>Ukraine&#45;&gt;Ural</title>
<path fill="none" stroke="black" d="M1010.34,-207.052C1004.85,-238.298 990.101,-305.929 959,-354 948.478,-370.262 931.784,-384.791 919.002,-394.505"/>
</g>
<!-- NewGuinea -->
<g id="node27" class="node"><title>NewGuinea</title>
<ellipse fill="pink" stroke="pink" cx="833" cy="-106" rx="55.4913" ry="18"/>
<text text-anchor="middle" x="833" y="-102.3" font-family="Times,serif" font-size="14.00">New Guinea</text>
</g>
<!-- WesternAustralia -->
<g id="node29" class="node"><title>WesternAustralia</title>
<ellipse fill="pink" stroke="pink" cx="714" cy="-34" rx="75.2868" ry="18"/>
<text text-anchor="middle" x="714" y="-30.3" font-family="Times,serif" font-size="14.00">Western Australia</text>
</g>
<!-- NewGuinea&#45;&gt;WesternAustralia -->
<g id="edge44" class="edge"><title>NewGuinea&#45;&gt;WesternAustralia</title>
<path fill="none" stroke="black" d="M807.472,-89.9832C787.94,-78.4939 761.063,-62.6841 741.141,-50.9655"/>
</g>
<!-- EasternAustralia -->
<g id="node28" class="node"><title>EasternAustralia</title>
<ellipse fill="pink" stroke="pink" cx="879" cy="-34" rx="71.4873" ry="18"/>
<text text-anchor="middle" x="879" y="-30.3" font-family="Times,serif" font-size="14.00">Eastern Australia</text>
</g>
<!-- EasternAustralia&#45;&gt;NewGuinea -->
<g id="edge41" class="edge"><title>EasternAustralia&#45;&gt;NewGuinea</title>
<path fill="none" stroke="black" d="M867.967,-51.789C860.755,-62.7636 851.368,-77.0492 844.135,-88.055"/>
</g>
<!-- EasternAustralia&#45;&gt;WesternAustralia -->
<g id="edge40" class="edge"><title>EasternAustralia&#45;&gt;WesternAustralia</title>
<path fill="none" stroke="black" d="M807.258,-34C801.309,-34 795.359,-34 789.41,-34"/>
</g>
<!-- Indonesia -->
<g id="node30" class="node"><title>Indonesia</title>
<ellipse fill="pink" stroke="pink" cx="715" cy="-106" rx="44.6926" ry="18"/>
<text text-anchor="middle" x="715" y="-102.3" font-family="Times,serif" font-size="14.00">Indonesia</text>
</g>
<!-- Indonesia&#45;&gt;NewGuinea -->
<g id="edge42" class="edge"><title>Indonesia&#45;&gt;NewGuinea</title>
<path fill="none" stroke="black" d="M760.172,-106C765.956,-106 771.741,-106 777.525,-106"/>
</g>
<!-- Indonesia&#45;&gt;WesternAustralia -->
<g id="edge43" class="edge"><title>Indonesia&#45;&gt;WesternAustralia</title>
<path fill="none" stroke="black" d="M714.753,-87.6966C714.598,-76.8463 714.399,-62.9167 714.244,-52.1043"/>
</g>
<!-- MiddleEast&#45;&gt;SouthernEurope -->
<g id="edge74" class="edge"><title>MiddleEast&#45;&gt;SouthernEurope</title>
<path fill="none" stroke="black" d="M848.202,-174.033C858.418,-169.846 870.022,-165.664 881,-163 916.155,-154.468 927.594,-166.174 962,-155 983.965,-147.867 1006.43,-134.18 1022.28,-123.241"/>
</g>
<!-- MiddleEast&#45;&gt;Ukraine -->
<g id="edge75" class="edge"><title>MiddleEast&#45;&gt;Ukraine</title>
<path fill="none" stroke="black" d="M845.802,-204.626C858.799,-211.063 874.746,-217.763 890,-221 917.39,-226.813 925.836,-227.791 953,-221 966.4,-217.65 980.084,-210.678 990.994,-204.095"/>
</g>
<!-- Siberia -->
<g id="node33" class="node"><title>Siberia</title>
<ellipse fill="green" stroke="green" cx="816" cy="-408" rx="35.9954" ry="18"/>
<text text-anchor="middle" x="816" y="-404.3" font-family="Times,serif" font-size="14.00">Siberia</text>
</g>
<!-- Yakutsk -->
<g id="node34" class="node"><title>Yakutsk</title>
<ellipse fill="green" stroke="green" cx="722" cy="-408" rx="40.0939" ry="18"/>
<text text-anchor="middle" x="722" y="-404.3" font-family="Times,serif" font-size="14.00">Yakutsk</text>
</g>
<!-- Siberia&#45;&gt;Yakutsk -->
<g id="edge65" class="edge"><title>Siberia&#45;&gt;Yakutsk</title>
<path fill="none" stroke="black" d="M779.981,-408C774.118,-408 768.254,-408 762.391,-408"/>
</g>
<!-- Afganistan -->
<g id="node35" class="node"><title>Afganistan</title>
<ellipse fill="green" stroke="green" cx="901" cy="-336" rx="49.2915" ry="18"/>
<text text-anchor="middle" x="901" y="-332.3" font-family="Times,serif" font-size="14.00">Afganistan</text>
</g>
<!-- Afganistan&#45;&gt;Ukraine -->
<g id="edge66" class="edge"><title>Afganistan&#45;&gt;Ukraine</title>
<path fill="none" stroke="black" d="M909.792,-318.16C920.968,-297.513 941.529,-261.948 964,-235 973.024,-224.178 984.576,-213.451 994.196,-205.185"/>
</g>
<!-- Afganistan&#45;&gt;MiddleEast -->
<g id="edge47" class="edge"><title>Afganistan&#45;&gt;MiddleEast</title>
<path fill="none" stroke="black" d="M899.127,-317.804C896.174,-296.797 888.918,-260.87 872,-235 864.319,-223.255 852.642,-212.981 842.109,-205.227"/>
</g>
<!-- Afganistan&#45;&gt;Ural -->
<g id="edge49" class="edge"><title>Afganistan&#45;&gt;Ural</title>
<path fill="none" stroke="black" d="M901,-354.104C901,-364.917 901,-378.846 901,-389.697"/>
</g>
<!-- Afganistan&#45;&gt;Siberia -->
<g id="edge48" class="edge"><title>Afganistan&#45;&gt;Siberia</title>
<path fill="none" stroke="black" d="M881.818,-352.797C867.498,-364.59 848.061,-380.597 834.026,-392.155"/>
</g>
<!-- China -->
<g id="node39" class="node"><title>China</title>
<ellipse fill="green" stroke="green" cx="831" cy="-261" rx="31.6951" ry="18"/>
<text text-anchor="middle" x="831" y="-257.3" font-family="Times,serif" font-size="14.00">China</text>
</g>
<!-- Afganistan&#45;&gt;China -->
<g id="edge45" class="edge"><title>Afganistan&#45;&gt;China</title>
<path fill="none" stroke="black" d="M885.465,-318.799C873.542,-306.366 857.202,-289.324 845.536,-277.159"/>
</g>
<!-- India -->
<g id="node41" class="node"><title>India</title>
<ellipse fill="green" stroke="green" cx="919" cy="-189" rx="28.6953" ry="18"/>
<text text-anchor="middle" x="919" y="-185.3" font-family="Times,serif" font-size="14.00">India</text>
</g>
<!-- Afganistan&#45;&gt;India -->
<g id="edge46" class="edge"><title>Afganistan&#45;&gt;India</title>
<path fill="none" stroke="black" d="M903.136,-317.797C906.6,-289.891 913.405,-235.073 916.867,-207.18"/>
</g>
<!-- Irkutsk -->
<g id="node36" class="node"><title>Irkutsk</title>
<ellipse fill="green" stroke="green" cx="650" cy="-336" rx="35.9954" ry="18"/>
<text text-anchor="middle" x="650" y="-332.3" font-family="Times,serif" font-size="14.00">Irkutsk</text>
</g>
<!-- Irkutsk&#45;&gt;Siberia -->
<g id="edge58" class="edge"><title>Irkutsk&#45;&gt;Siberia</title>
<path fill="none" stroke="black" d="M676.605,-348.219C707.554,-361.27 758.352,-382.691 789.329,-395.753"/>
</g>
<!-- Irkutsk&#45;&gt;Yakutsk -->
<g id="edge59" class="edge"><title>Irkutsk&#45;&gt;Yakutsk</title>
<path fill="none" stroke="black" d="M665.934,-352.492C677.855,-364.082 694.089,-379.865 706.021,-391.465"/>
</g>
<!-- Mongolia -->
<g id="node37" class="node"><title>Mongolia</title>
<ellipse fill="green" stroke="green" cx="749" cy="-336" rx="45.4919" ry="18"/>
<text text-anchor="middle" x="749" y="-332.3" font-family="Times,serif" font-size="14.00">Mongolia</text>
</g>
<!-- Irkutsk&#45;&gt;Mongolia -->
<g id="edge57" class="edge"><title>Irkutsk&#45;&gt;Mongolia</title>
<path fill="none" stroke="black" d="M685.965,-336C691.71,-336 697.456,-336 703.201,-336"/>
</g>
<!-- Kamchatka&#45;&gt;Irkutsk -->
<g id="edge62" class="edge"><title>Kamchatka&#45;&gt;Irkutsk</title>
<path fill="none" stroke="black" d="M596.68,-336C602.512,-336 608.344,-336 614.175,-336"/>
</g>
<!-- Kamchatka&#45;&gt;Mongolia -->
<g id="edge63" class="edge"><title>Kamchatka&#45;&gt;Mongolia</title>
<path fill="none" stroke="black" d="M568.764,-352.038C581.569,-359.715 597.99,-368.075 614,-372 645.079,-379.62 655.072,-380.213 686,-372 700.854,-368.055 715.858,-359.694 727.496,-352.022"/>
</g>
<!-- Yakitsk -->
<g id="node43" class="node"><title>Yakitsk</title>
<ellipse fill="green" stroke="green" cx="545" cy="-261" rx="38.1938" ry="18"/>
<text text-anchor="middle" x="545" y="-257.3" font-family="Times,serif" font-size="14.00">Yakitsk</text>
</g>
<!-- Kamchatka&#45;&gt;Yakitsk -->
<g id="edge64" class="edge"><title>Kamchatka&#45;&gt;Yakitsk</title>
<path fill="none" stroke="black" d="M545,-317.7C545,-306.063 545,-290.787 545,-279.176"/>
</g>
<!-- China&#45;&gt;Ural -->
<g id="edge54" class="edge"><title>China&#45;&gt;Ural</title>
<path fill="none" stroke="black" d="M829.828,-279.324C829.272,-298.641 830.651,-330.284 843,-354 851.945,-371.18 868.812,-385.608 882.061,-395.051"/>
</g>
<!-- China&#45;&gt;Siberia -->
<g id="edge53" class="edge"><title>China&#45;&gt;Siberia</title>
<path fill="none" stroke="black" d="M829.223,-279.18C826.337,-307.073 820.666,-361.891 817.78,-389.797"/>
</g>
<!-- China&#45;&gt;Mongolia -->
<g id="edge51" class="edge"><title>China&#45;&gt;Mongolia</title>
<path fill="none" stroke="black" d="M814.635,-276.568C800.801,-288.885 781.018,-306.496 766.793,-319.16"/>
</g>
<!-- China&#45;&gt;India -->
<g id="edge50" class="edge"><title>China&#45;&gt;India</title>
<path fill="none" stroke="black" d="M848.808,-245.834C864.277,-233.53 886.535,-215.824 901.817,-203.668"/>
</g>
<!-- Siam -->
<g id="node42" class="node"><title>Siam</title>
<ellipse fill="green" stroke="green" cx="717" cy="-189" rx="29.4969" ry="18"/>
<text text-anchor="middle" x="717" y="-185.3" font-family="Times,serif" font-size="14.00">Siam</text>
</g>
<!-- China&#45;&gt;Siam -->
<g id="edge52" class="edge"><title>China&#45;&gt;Siam</title>
<path fill="none" stroke="black" d="M810.091,-247.161C789.264,-234.373 757.518,-214.879 737.012,-202.288"/>
</g>
<!-- Japan -->
<g id="node40" class="node"><title>Japan</title>
<ellipse fill="green" stroke="green" cx="691" cy="-261" rx="30.5947" ry="18"/>
<text text-anchor="middle" x="691" y="-257.3" font-family="Times,serif" font-size="14.00">Japan</text>
</g>
<!-- Japan&#45;&gt;Mongolia -->
<g id="edge61" class="edge"><title>Japan&#45;&gt;Mongolia</title>
<path fill="none" stroke="black" d="M703.316,-277.501C712.868,-289.523 726.079,-306.152 735.839,-318.435"/>
</g>
<!-- Japan&#45;&gt;Kamchatka -->
<g id="edge60" class="edge"><title>Japan&#45;&gt;Kamchatka</title>
<path fill="none" stroke="black" d="M668.208,-273.396C642.545,-286.227 600.827,-307.087 573.15,-320.925"/>
</g>
<!-- India&#45;&gt;MiddleEast -->
<g id="edge55" class="edge"><title>India&#45;&gt;MiddleEast</title>
<path fill="none" stroke="black" d="M890.39,-189C884.277,-189 878.164,-189 872.051,-189"/>
</g>
<!-- India&#45;&gt;Siam -->
<g id="edge56" class="edge"><title>India&#45;&gt;Siam</title>
<path fill="none" stroke="black" d="M902.456,-203.881C893.987,-210.503 883.132,-217.57 872,-221 826.128,-235.134 809.872,-235.134 764,-221 752.868,-217.57 742.013,-210.503 733.544,-203.881"/>
</g>
<!-- Siam&#45;&gt;Indonesia -->
<g id="edge78" class="edge"><title>Siam&#45;&gt;Indonesia</title>
<path fill="none" stroke="black" d="M716.576,-170.822C716.236,-157.076 715.763,-137.893 715.424,-124.153"/>
</g>
</g>
</svg>
