<?xml version="1.0" encoding="UTF-8" standalone="no"?>
<!DOCTYPE svg PUBLIC "-//W3C//DTD SVG 1.1//EN"
 "http://www.w3.org/Graphics/SVG/1.1/DTD/svg11.dtd">
<!-- Generated by graphviz version 2.38.0 (20140413.2041)
 -->
<!-- Title: root Pages: 1 -->
<svg width="1323pt" height="900pt"
 viewBox="0.00 0.00 1323.00 900.00" xmlns="http://www.w3.org/2000/svg" xmlns:xlink="http://www.w3.org/1999/xlink">
<g id="graph0" class="graph" transform="scale(1 1) rotate(0) translate(4 896)">
<title>root</title>
<polygon fill="white" stroke="none" points="-4,4 -4,-896 1319,-896 1319,4 -4,4"/>
<g id="clust2" class="cluster"><title>cluster_north_america</title>
<polygon fill="lightgrey" stroke="black" points="50,-601 50,-892 438,-892 438,-601 50,-601"/>
<text text-anchor="middle" x="244" y="-876.8" font-family="Times,serif" font-size="14.00">North America</text>
</g>
<g id="clust7" class="cluster"><title>cluster_africa</title>
<polygon fill="lightgrey" stroke="black" points="160,-227 160,-446 414,-446 414,-227 160,-227"/>
<text text-anchor="middle" x="287" y="-430.8" font-family="Times,serif" font-size="14.00">Africa</text>
</g>
<g id="clust11" class="cluster"><title>cluster_europa</title>
<polygon fill="lightgrey" stroke="black" points="480,-227 480,-446 864,-446 864,-227 480,-227"/>
<text text-anchor="middle" x="672" y="-430.8" font-family="Times,serif" font-size="14.00">Europe</text>
</g>
<g id="clust15" class="cluster"><title>cluster_asia</title>
<polygon fill="lightgrey" stroke="black" points="872,-227 872,-593 1251,-593 1251,-227 872,-227"/>
<text text-anchor="middle" x="1061.5" y="-577.8" font-family="Times,serif" font-size="14.00">Asia</text>
</g>
<g id="clust21" class="cluster"><title>cluster_south_america</title>
<polygon fill="lightgrey" stroke="black" points="0,-371 0,-593 152,-593 152,-371 0,-371"/>
<text text-anchor="middle" x="76" y="-577.8" font-family="Times,serif" font-size="14.00">South America</text>
</g>
<g id="clust25" class="cluster"><title>cluster_australia</title>
<polygon fill="lightgrey" stroke="black" points="1020,-0 1020,-219 1315,-219 1315,-0 1020,-0"/>
<text text-anchor="middle" x="1167.5" y="-203.8" font-family="Times,serif" font-size="14.00">Australia</text>
</g>
<!-- NWT -->
<g id="node1" class="node"><title>NWT</title>
<ellipse fill="yellow" stroke="yellow" cx="261" cy="-843" rx="88.5" ry="18"/>
<text text-anchor="middle" x="261" y="-839.3" font-family="Times,serif" font-size="14.00">Northwest Territory</text>
</g>
<!-- Alaska -->
<g id="node2" class="node"><title>Alaska</title>
<ellipse fill="yellow" stroke="yellow" cx="395" cy="-843" rx="38" ry="18"/>
<text text-anchor="middle" x="395" y="-839.3" font-family="Times,serif" font-size="14.00">Alaska</text>
</g>
<!-- Alaska&#45;&gt;NWT -->
<g id="edge1" class="edge"><title>Alaska&#45;&gt;NWT</title>
<path fill="none" stroke="black" d="M359.66,-843C353.9,-843 348.15,-843 342.39,-843"/>
</g>
<!-- Alberta -->
<g id="node5" class="node"><title>Alberta</title>
<ellipse fill="yellow" stroke="yellow" cx="324" cy="-771" rx="40" ry="18"/>
<text text-anchor="middle" x="324" y="-767.3" font-family="Times,serif" font-size="14.00">Alberta</text>
</g>
<!-- Alaska&#45;&gt;Alberta -->
<g id="edge2" class="edge"><title>Alaska&#45;&gt;Alberta</title>
<path fill="none" stroke="black" d="M379.59,-826.81C367.85,-815.23 351.73,-799.34 339.87,-787.64"/>
</g>
<!-- Kamchatka -->
<g id="node26" class="node"><title>Kamchatka</title>
<ellipse fill="green" stroke="green" cx="931" cy="-544" rx="55" ry="18"/>
<text text-anchor="middle" x="931" y="-540.3" font-family="Times,serif" font-size="14.00">Kamchatka</text>
</g>
<!-- Alaska&#45;&gt;Kamchatka -->
<g id="edge66" class="edge"><title>Alaska&#45;&gt;Kamchatka</title>
<path fill="none" stroke="black" d="M418.03,-829.24C504.9,-781.11 812.4,-610.72 904.65,-559.6"/>
</g>
<!-- Greenland -->
<g id="node3" class="node"><title>Greenland</title>
<ellipse fill="yellow" stroke="yellow" cx="114" cy="-843" rx="51.5" ry="18"/>
<text text-anchor="middle" x="114" y="-839.3" font-family="Times,serif" font-size="14.00">Greenland</text>
</g>
<!-- Greenland&#45;&gt;NWT -->
<g id="edge3" class="edge"><title>Greenland&#45;&gt;NWT</title>
<path fill="none" stroke="black" d="M161.66,-843C167.61,-843 173.56,-843 179.51,-843"/>
</g>
<!-- Ontario -->
<g id="node6" class="node"><title>Ontario</title>
<ellipse fill="yellow" stroke="yellow" cx="219" cy="-771" rx="40.5" ry="18"/>
<text text-anchor="middle" x="219" y="-767.3" font-family="Times,serif" font-size="14.00">Ontario</text>
</g>
<!-- Greenland&#45;&gt;Ontario -->
<g id="edge4" class="edge"><title>Greenland&#45;&gt;Ontario</title>
<path fill="none" stroke="black" d="M136.53,-826.98C154.72,-814.85 180.15,-797.9 197.94,-786.04"/>
</g>
<!-- Iceland -->
<g id="node16" class="node"><title>Iceland</title>
<ellipse fill="lightblue" stroke="lightblue" cx="545" cy="-397" rx="39.5" ry="18"/>
<text text-anchor="middle" x="545" y="-393.3" font-family="Times,serif" font-size="14.00">Iceland</text>
</g>
<!-- Greenland&#45;&gt;Iceland -->
<g id="edge67" class="edge"><title>Greenland&#45;&gt;Iceland</title>
<path fill="none" stroke="black" d="M149.11,-830.87C156.31,-828.77 163.87,-826.7 171,-825 331.25,-786.73 520,-864.76 520,-700 520,-700 520,-700 520,-543 520,-496.25 532.78,-442.24 540.06,-415.24"/>
</g>
<!-- QC -->
<g id="node4" class="node"><title>QC</title>
<ellipse fill="yellow" stroke="yellow" cx="126" cy="-771" rx="40.5" ry="18"/>
<text text-anchor="middle" x="126" y="-767.3" font-family="Times,serif" font-size="14.00">Quebec</text>
</g>
<!-- QC&#45;&gt;Greenland -->
<g id="edge5" class="edge"><title>QC&#45;&gt;Greenland</title>
<path fill="none" stroke="black" d="M123.07,-789.1C121.21,-799.92 118.83,-813.85 116.97,-824.7"/>
</g>
<!-- QC&#45;&gt;Ontario -->
<g id="edge6" class="edge"><title>QC&#45;&gt;Ontario</title>
<path fill="none" stroke="black" d="M163.78,-771C169.53,-771 175.29,-771 181.04,-771"/>
</g>
<!-- EUS -->
<g id="node8" class="node"><title>EUS</title>
<ellipse fill="yellow" stroke="yellow" cx="145" cy="-699" rx="94" ry="18"/>
<text text-anchor="middle" x="145" y="-695.3" font-family="Times,serif" font-size="14.00">Eastern United States</text>
</g>
<!-- QC&#45;&gt;EUS -->
<g id="edge7" class="edge"><title>QC&#45;&gt;EUS</title>
<path fill="none" stroke="black" d="M130.6,-753.05C133.54,-742.21 137.35,-728.18 140.31,-717.28"/>
</g>
<!-- Alberta&#45;&gt;NWT -->
<g id="edge8" class="edge"><title>Alberta&#45;&gt;NWT</title>
<path fill="none" stroke="black" d="M309.75,-787.83C299.77,-798.92 286.45,-813.73 276.25,-825.05"/>
</g>
<!-- Alberta&#45;&gt;Ontario -->
<g id="edge9" class="edge"><title>Alberta&#45;&gt;Ontario</title>
<path fill="none" stroke="black" d="M286.95,-771C276.88,-771 266.81,-771 256.73,-771"/>
</g>
<!-- WUS -->
<g id="node7" class="node"><title>WUS</title>
<ellipse fill="yellow" stroke="yellow" cx="340" cy="-699" rx="97.5" ry="18"/>
<text text-anchor="middle" x="340" y="-695.3" font-family="Times,serif" font-size="14.00">Western United States</text>
</g>
<!-- Alberta&#45;&gt;WUS -->
<g id="edge10" class="edge"><title>Alberta&#45;&gt;WUS</title>
<path fill="none" stroke="black" d="M327.87,-753.05C330.35,-742.21 333.56,-728.18 336.05,-717.28"/>
</g>
<!-- Ontario&#45;&gt;WUS -->
<g id="edge11" class="edge"><title>Ontario&#45;&gt;WUS</title>
<path fill="none" stroke="black" d="M242.04,-756.67C261.93,-745.17 290.71,-728.51 311.94,-716.23"/>
</g>
<!-- EUS&#45;&gt;Ontario -->
<g id="edge12" class="edge"><title>EUS&#45;&gt;Ontario</title>
<path fill="none" stroke="black" d="M162.67,-716.71C174.78,-728.17 190.74,-743.27 202.58,-754.46"/>
</g>
<!-- EUS&#45;&gt;WUS -->
<g id="edge13" class="edge"><title>EUS&#45;&gt;WUS</title>
<path fill="none" stroke="black" d="M232.22,-699C237.97,-699 243.72,-699 249.48,-699"/>
</g>
<!-- CentralAmerica -->
<g id="node9" class="node"><title>CentralAmerica</title>
<ellipse fill="yellow" stroke="yellow" cx="145" cy="-627" rx="75" ry="18"/>
<text text-anchor="middle" x="145" y="-623.3" font-family="Times,serif" font-size="14.00">Central America</text>
</g>
<!-- CentralAmerica&#45;&gt;WUS -->
<g id="edge14" class="edge"><title>CentralAmerica&#45;&gt;WUS</title>
<path fill="none" stroke="black" d="M184.11,-642.04C217.15,-653.9 264.37,-670.85 298.17,-682.98"/>
</g>
<!-- CentralAmerica&#45;&gt;EUS -->
<g id="edge15" class="edge"><title>CentralAmerica&#45;&gt;EUS</title>
<path fill="none" stroke="black" d="M145,-645.1C145,-655.92 145,-669.85 145,-680.7"/>
</g>
<!-- Venezuala -->
<g id="node35" class="node"><title>Venezuala</title>
<ellipse fill="orangered" stroke="orangered" cx="96" cy="-544" rx="52" ry="18"/>
<text text-anchor="middle" x="96" y="-540.3" font-family="Times,serif" font-size="14.00">Venezuala</text>
</g>
<!-- CentralAmerica&#45;&gt;Venezuala -->
<g id="edge68" class="edge"><title>CentralAmerica&#45;&gt;Venezuala</title>
<path fill="none" stroke="black" d="M134.61,-608.82C126.24,-594.98 114.53,-575.63 106.21,-561.88"/>
</g>
<!-- NorthAfrica -->
<g id="node10" class="node"><title>NorthAfrica</title>
<ellipse fill="orange" stroke="orange" cx="268" cy="-397" rx="60.5" ry="18"/>
<text text-anchor="middle" x="268" y="-393.3" font-family="Times,serif" font-size="14.00">North Africa</text>
</g>
<!-- WesternEurope -->
<g id="node21" class="node"><title>WesternEurope</title>
<ellipse fill="lightblue" stroke="lightblue" cx="556" cy="-253" rx="73.5" ry="18"/>
<text text-anchor="middle" x="556" y="-249.3" font-family="Times,serif" font-size="14.00">Western Europe</text>
</g>
<!-- NorthAfrica&#45;&gt;WesternEurope -->
<g id="edge69" class="edge"><title>NorthAfrica&#45;&gt;WesternEurope</title>
<path fill="none" stroke="black" d="M297.75,-381.67C317.41,-371.74 343.44,-357.7 365,-343 385.59,-328.96 386.38,-319.39 408,-307 439.85,-288.75 479.08,-275.04 509.15,-266.15"/>
</g>
<!-- SouthernEurope -->
<g id="node22" class="node"><title>SouthernEurope</title>
<ellipse fill="lightblue" stroke="lightblue" cx="712" cy="-253" rx="76" ry="18"/>
<text text-anchor="middle" x="712" y="-249.3" font-family="Times,serif" font-size="14.00">Southern Europe</text>
</g>
<!-- NorthAfrica&#45;&gt;SouthernEurope -->
<g id="edge70" class="edge"><title>NorthAfrica&#45;&gt;SouthernEurope</title>
<path fill="none" stroke="black" d="M302.47,-382.68C340.41,-367.95 396.65,-345.91 401,-343 419.55,-330.6 416.31,-317.5 436,-307 514.53,-265.1 545.7,-288.36 633,-271 641.94,-269.22 651.44,-267.25 660.63,-265.3"/>
</g>
<!-- Egypt -->
<g id="node11" class="node"><title>Egypt</title>
<ellipse fill="orange" stroke="orange" cx="374" cy="-397" rx="34" ry="18"/>
<text text-anchor="middle" x="374" y="-393.3" font-family="Times,serif" font-size="14.00">Egypt</text>
</g>
<!-- Egypt&#45;&gt;NorthAfrica -->
<g id="edge16" class="edge"><title>Egypt&#45;&gt;NorthAfrica</title>
<path fill="none" stroke="black" d="M341.9,-397C335.9,-397 329.9,-397 323.9,-397"/>
</g>
<!-- Egypt&#45;&gt;SouthernEurope -->
<g id="edge71" class="edge"><title>Egypt&#45;&gt;SouthernEurope</title>
<path fill="none" stroke="black" d="M391.09,-381.43C420.51,-356.35 477.73,-307.63 479,-307 487.15,-302.93 593.93,-279.47 660.07,-265.16"/>
</g>
<!-- MiddleEast -->
<g id="node32" class="node"><title>MiddleEast</title>
<ellipse fill="green" stroke="green" cx="934" cy="-325" rx="58" ry="18"/>
<text text-anchor="middle" x="934" y="-321.3" font-family="Times,serif" font-size="14.00">Middle East</text>
</g>
<!-- Egypt&#45;&gt;MiddleEast -->
<g id="edge72" class="edge"><title>Egypt&#45;&gt;MiddleEast</title>
<path fill="none" stroke="black" d="M401.88,-387.81C422.24,-382.17 450.6,-374.99 476,-371 648.55,-343.89 695.61,-371.12 868,-343 876.64,-341.59 885.8,-339.58 894.46,-337.42"/>
</g>
<!-- EastAfrica -->
<g id="node12" class="node"><title>EastAfrica</title>
<ellipse fill="orange" stroke="orange" cx="305" cy="-325" rx="54.5" ry="18"/>
<text text-anchor="middle" x="305" y="-321.3" font-family="Times,serif" font-size="14.00">East Africa</text>
</g>
<!-- EastAfrica&#45;&gt;NorthAfrica -->
<g id="edge17" class="edge"><title>EastAfrica&#45;&gt;NorthAfrica</title>
<path fill="none" stroke="black" d="M296.13,-342.79C290.32,-353.76 282.77,-368.05 276.96,-379.05"/>
</g>
<!-- EastAfrica&#45;&gt;Egypt -->
<g id="edge18" class="edge"><title>EastAfrica&#45;&gt;Egypt</title>
<path fill="none" stroke="black" d="M320.9,-342.13C332.38,-353.78 347.77,-369.39 359.03,-380.81"/>
</g>
<!-- SouthAfrica -->
<g id="node14" class="node"><title>SouthAfrica</title>
<ellipse fill="orange" stroke="orange" cx="224" cy="-253" rx="60.5" ry="18"/>
<text text-anchor="middle" x="224" y="-249.3" font-family="Times,serif" font-size="14.00">South Africa</text>
</g>
<!-- EastAfrica&#45;&gt;SouthAfrica -->
<g id="edge19" class="edge"><title>EastAfrica&#45;&gt;SouthAfrica</title>
<path fill="none" stroke="black" d="M286.62,-308.12C273.46,-296.74 255.8,-281.48 242.59,-270.06"/>
</g>
<!-- Madagascar -->
<g id="node15" class="node"><title>Madagascar</title>
<ellipse fill="orange" stroke="orange" cx="352" cy="-253" rx="57.5" ry="18"/>
<text text-anchor="middle" x="352" y="-249.3" font-family="Times,serif" font-size="14.00">Madagascar</text>
</g>
<!-- EastAfrica&#45;&gt;Madagascar -->
<g id="edge20" class="edge"><title>EastAfrica&#45;&gt;Madagascar</title>
<path fill="none" stroke="black" d="M316.14,-307.41C323.52,-296.41 333.18,-282.03 340.62,-270.96"/>
</g>
<!-- EastAfrica&#45;&gt;SouthernEurope -->
<g id="edge73" class="edge"><title>EastAfrica&#45;&gt;SouthernEurope</title>
<path fill="none" stroke="black" d="M349.86,-316.55C367.92,-313.56 388.95,-310.1 408,-307 507.96,-290.75 533.46,-289.66 633,-271 641.96,-269.32 651.47,-267.4 660.66,-265.46"/>
</g>
<!-- Congo -->
<g id="node13" class="node"><title>Congo</title>
<ellipse fill="orange" stroke="orange" cx="202" cy="-325" rx="37" ry="18"/>
<text text-anchor="middle" x="202" y="-321.3" font-family="Times,serif" font-size="14.00">Congo</text>
</g>
<!-- Congo&#45;&gt;NorthAfrica -->
<g id="edge21" class="edge"><title>Congo&#45;&gt;NorthAfrica</title>
<path fill="none" stroke="black" d="M216.62,-341.51C227.22,-352.75 241.53,-367.93 252.36,-379.41"/>
</g>
<!-- Congo&#45;&gt;EastAfrica -->
<g id="edge22" class="edge"><title>Congo&#45;&gt;EastAfrica</title>
<path fill="none" stroke="black" d="M236.6,-325C242.48,-325 248.36,-325 254.24,-325"/>
</g>
<!-- Congo&#45;&gt;SouthAfrica -->
<g id="edge23" class="edge"><title>Congo&#45;&gt;SouthAfrica</title>
<path fill="none" stroke="black" d="M207.33,-307.05C210.73,-296.21 215.14,-282.18 218.57,-271.28"/>
</g>
<!-- Madagascar&#45;&gt;SouthAfrica -->
<g id="edge24" class="edge"><title>Madagascar&#45;&gt;SouthAfrica</title>
<path fill="none" stroke="black" d="M298,-253C292,-253 286,-253 280,-253"/>
</g>
<!-- Scandinavia -->
<g id="node17" class="node"><title>Scandinavia</title>
<ellipse fill="lightblue" stroke="lightblue" cx="672" cy="-397" rx="58" ry="18"/>
<text text-anchor="middle" x="672" y="-393.3" font-family="Times,serif" font-size="14.00">Scandinavia</text>
</g>
<!-- Iceland&#45;&gt;Scandinavia -->
<g id="edge25" class="edge"><title>Iceland&#45;&gt;Scandinavia</title>
<path fill="none" stroke="black" d="M581.71,-397C593.82,-397 605.93,-397 618.04,-397"/>
</g>
<!-- Ukraine -->
<g id="node20" class="node"><title>Ukraine</title>
<ellipse fill="lightblue" stroke="lightblue" cx="817" cy="-325" rx="42" ry="18"/>
<text text-anchor="middle" x="817" y="-321.3" font-family="Times,serif" font-size="14.00">Ukraine</text>
</g>
<!-- Scandinavia&#45;&gt;Ukraine -->
<g id="edge26" class="edge"><title>Scandinavia&#45;&gt;Ukraine</title>
<path fill="none" stroke="black" d="M701.34,-381.83C727.66,-369.13 765.9,-350.67 791.1,-338.5"/>
</g>
<!-- GreatBritain -->
<g id="node18" class="node"><title>GreatBritain</title>
<ellipse fill="lightblue" stroke="lightblue" cx="545" cy="-325" rx="61.5" ry="18"/>
<text text-anchor="middle" x="545" y="-321.3" font-family="Times,serif" font-size="14.00">Great Britain</text>
</g>
<!-- GreatBritain&#45;&gt;Iceland -->
<g id="edge27" class="edge"><title>GreatBritain&#45;&gt;Iceland</title>
<path fill="none" stroke="black" d="M545,-343.1C545,-353.92 545,-367.85 545,-378.7"/>
</g>
<!-- GreatBritain&#45;&gt;Scandinavia -->
<g id="edge28" class="edge"><title>GreatBritain&#45;&gt;Scandinavia</title>
<path fill="none" stroke="black" d="M572.03,-340.9C593.66,-352.82 623.85,-369.46 645.38,-381.33"/>
</g>
<!-- NorthernEurope -->
<g id="node19" class="node"><title>NorthernEurope</title>
<ellipse fill="lightblue" stroke="lightblue" cx="690" cy="-325" rx="76" ry="18"/>
<text text-anchor="middle" x="690" y="-321.3" font-family="Times,serif" font-size="14.00">Northern Europe</text>
</g>
<!-- GreatBritain&#45;&gt;NorthernEurope -->
<g id="edge29" class="edge"><title>GreatBritain&#45;&gt;NorthernEurope</title>
<path fill="none" stroke="black" d="M602.21,-325C608.04,-325 613.87,-325 619.7,-325"/>
</g>
<!-- GreatBritain&#45;&gt;WesternEurope -->
<g id="edge30" class="edge"><title>GreatBritain&#45;&gt;WesternEurope</title>
<path fill="none" stroke="black" d="M547.72,-306.7C549.42,-295.85 551.61,-281.92 553.31,-271.1"/>
</g>
<!-- NorthernEurope&#45;&gt;Scandinavia -->
<g id="edge31" class="edge"><title>NorthernEurope&#45;&gt;Scandinavia</title>
<path fill="none" stroke="black" d="M685.56,-343.28C682.75,-354.18 679.15,-368.21 676.36,-379.05"/>
</g>
<!-- NorthernEurope&#45;&gt;Ukraine -->
<g id="edge32" class="edge"><title>NorthernEurope&#45;&gt;Ukraine</title>
<path fill="none" stroke="black" d="M760.45,-325C766.19,-325 771.93,-325 777.68,-325"/>
</g>
<!-- NorthernEurope&#45;&gt;WesternEurope -->
<g id="edge33" class="edge"><title>NorthernEurope&#45;&gt;WesternEurope</title>
<path fill="none" stroke="black" d="M660.59,-308.64C638.25,-296.97 607.66,-280.99 585.34,-269.33"/>
</g>
<!-- NorthernEurope&#45;&gt;SouthernEurope -->
<g id="edge34" class="edge"><title>NorthernEurope&#45;&gt;SouthernEurope</title>
<path fill="none" stroke="black" d="M695.44,-306.7C698.85,-295.85 703.23,-281.92 706.62,-271.1"/>
</g>
<!-- Ural -->
<g id="node23" class="node"><title>Ural</title>
<ellipse fill="green" stroke="green" cx="1126" cy="-544" rx="28" ry="18"/>
<text text-anchor="middle" x="1126" y="-540.3" font-family="Times,serif" font-size="14.00">Ural</text>
</g>
<!-- Ukraine&#45;&gt;Ural -->
<g id="edge74" class="edge"><title>Ukraine&#45;&gt;Ural</title>
<path fill="none" stroke="black" d="M815.97,-343.18C815.3,-367.69 817.03,-413.36 836,-446 851.73,-473.06 862.5,-477.04 891,-490 972.82,-527.21 1004.4,-498.57 1090,-526 1095.1,-527.65 1100.5,-529.87 1105.4,-532.16"/>
</g>
<!-- SouthernEurope&#45;&gt;Ukraine -->
<g id="edge35" class="edge"><title>SouthernEurope&#45;&gt;Ukraine</title>
<path fill="none" stroke="black" d="M736.16,-270.1C754.15,-282.1 778.49,-298.33 795.75,-309.83"/>
</g>
<!-- Siberia -->
<g id="node24" class="node"><title>Siberia</title>
<ellipse fill="green" stroke="green" cx="1207" cy="-544" rx="38.5" ry="18"/>
<text text-anchor="middle" x="1207" y="-540.3" font-family="Times,serif" font-size="14.00">Siberia</text>
</g>
<!-- Yakutsk -->
<g id="node25" class="node"><title>Yakutsk</title>
<ellipse fill="green" stroke="green" cx="1041" cy="-544" rx="43" ry="18"/>
<text text-anchor="middle" x="1041" y="-540.3" font-family="Times,serif" font-size="14.00">Yakutsk</text>
</g>
<!-- Siberia&#45;&gt;Yakutsk -->
<g id="edge36" class="edge"><title>Siberia&#45;&gt;Yakutsk</title>
<path fill="none" stroke="black" d="M1194.3,-561.09C1186,-571.35 1174.4,-584.1 1162,-593 1158.4,-595.55 1157.3,-596.09 1153,-597 1129.5,-601.98 1122.5,-601.98 1099,-597 1079,-592.75 1062.5,-575.29 1052.3,-561.55"/>
</g>
<!-- Kamchatka&#45;&gt;Yakutsk -->
<g id="edge37" class="edge"><title>Kamchatka&#45;&gt;Yakutsk</title>
<path fill="none" stroke="black" d="M982.56,-544C988.5,-544 994.4,-544 1000.4,-544"/>
</g>
<!-- Irkutsk -->
<g id="node28" class="node"><title>Irkutsk</title>
<ellipse fill="green" stroke="green" cx="1044" cy="-472" rx="38.5" ry="18"/>
<text text-anchor="middle" x="1044" y="-468.3" font-family="Times,serif" font-size="14.00">Irkutsk</text>
</g>
<!-- Kamchatka&#45;&gt;Irkutsk -->
<g id="edge38" class="edge"><title>Kamchatka&#45;&gt;Irkutsk</title>
<path fill="none" stroke="black" d="M955.24,-527.98C975.09,-515.69 1002.9,-498.45 1022.1,-486.57"/>
</g>
<!-- Mongolia -->
<g id="node29" class="node"><title>Mongolia</title>
<ellipse fill="green" stroke="green" cx="945" cy="-472" rx="48.5" ry="18"/>
<text text-anchor="middle" x="945" y="-468.3" font-family="Times,serif" font-size="14.00">Mongolia</text>
</g>
<!-- Kamchatka&#45;&gt;Mongolia -->
<g id="edge39" class="edge"><title>Kamchatka&#45;&gt;Mongolia</title>
<path fill="none" stroke="black" d="M934.46,-525.7C936.63,-514.85 939.42,-500.92 941.58,-490.1"/>
</g>
<!-- Afganistan -->
<g id="node27" class="node"><title>Afganistan</title>
<ellipse fill="green" stroke="green" cx="1147" cy="-472" rx="53.5" ry="18"/>
<text text-anchor="middle" x="1147" y="-468.3" font-family="Times,serif" font-size="14.00">Afganistan</text>
</g>
<!-- Afganistan&#45;&gt;Ukraine -->
<g id="edge76" class="edge"><title>Afganistan&#45;&gt;Ukraine</title>
<path fill="none" stroke="black" d="M1112,-459.26C1104.5,-457.16 1096.6,-455.24 1089,-454 1067.2,-450.42 909.07,-457.23 890,-446 869.93,-434.18 839.17,-373.2 824.85,-342.99"/>
</g>
<!-- Afganistan&#45;&gt;Ural -->
<g id="edge40" class="edge"><title>Afganistan&#45;&gt;Ural</title>
<path fill="none" stroke="black" d="M1141.8,-490.28C1138.5,-501.18 1134.3,-515.21 1131.1,-526.05"/>
</g>
<!-- Afganistan&#45;&gt;Siberia -->
<g id="edge41" class="edge"><title>Afganistan&#45;&gt;Siberia</title>
<path fill="none" stroke="black" d="M1161,-489.31C1170.7,-500.7 1183.7,-515.82 1193.4,-527.12"/>
</g>
<!-- China -->
<g id="node30" class="node"><title>China</title>
<ellipse fill="green" stroke="green" cx="1172" cy="-397" rx="34" ry="18"/>
<text text-anchor="middle" x="1172" y="-393.3" font-family="Times,serif" font-size="14.00">China</text>
</g>
<!-- Afganistan&#45;&gt;China -->
<g id="edge42" class="edge"><title>Afganistan&#45;&gt;China</title>
<path fill="none" stroke="black" d="M1152.8,-454.07C1156.8,-442.28 1162.2,-426.61 1166.2,-414.84"/>
</g>
<!-- Afganistan&#45;&gt;MiddleEast -->
<g id="edge43" class="edge"><title>Afganistan&#45;&gt;MiddleEast</title>
<path fill="none" stroke="black" d="M1124.6,-455.76C1083.8,-427.98 997.8,-369.42 956.73,-341.48"/>
</g>
<!-- India -->
<g id="node33" class="node"><title>India</title>
<ellipse fill="green" stroke="green" cx="1122" cy="-325" rx="31" ry="18"/>
<text text-anchor="middle" x="1122" y="-321.3" font-family="Times,serif" font-size="14.00">India</text>
</g>
<!-- Afganistan&#45;&gt;India -->
<g id="edge44" class="edge"><title>Afganistan&#45;&gt;India</title>
<path fill="none" stroke="black" d="M1134.8,-454.36C1133.3,-451.67 1131.9,-448.84 1131,-446 1119.3,-410.92 1119.5,-366.99 1120.7,-343.21"/>
</g>
<!-- Irkutsk&#45;&gt;Siberia -->
<g id="edge45" class="edge"><title>Irkutsk&#45;&gt;Siberia</title>
<path fill="none" stroke="black" d="M1070.3,-484.28C1100.6,-497.29 1150,-518.54 1180.4,-531.6"/>
</g>
<!-- Irkutsk&#45;&gt;Yakutsk -->
<g id="edge46" class="edge"><title>Irkutsk&#45;&gt;Yakutsk</title>
<path fill="none" stroke="black" d="M1043.3,-490.1C1042.8,-500.92 1042.2,-514.85 1041.7,-525.7"/>
</g>
<!-- Irkutsk&#45;&gt;Mongolia -->
<g id="edge47" class="edge"><title>Irkutsk&#45;&gt;Mongolia</title>
<path fill="none" stroke="black" d="M1008.1,-472C1002.3,-472 996.5,-472 990.63,-472"/>
</g>
<!-- China&#45;&gt;Ural -->
<g id="edge48" class="edge"><title>China&#45;&gt;Ural</title>
<path fill="none" stroke="black" d="M1185.3,-413.55C1199.6,-432.33 1218.6,-464.55 1205,-490 1198.6,-501.95 1168,-520.34 1146.8,-532.01"/>
</g>
<!-- China&#45;&gt;Siberia -->
<g id="edge49" class="edge"><title>China&#45;&gt;Siberia</title>
<path fill="none" stroke="black" d="M1189.3,-412.16C1200.4,-422.45 1213.9,-437.43 1220,-454 1228.9,-478.02 1221.1,-507.79 1214.3,-526.08"/>
</g>
<!-- China&#45;&gt;Mongolia -->
<g id="edge50" class="edge"><title>China&#45;&gt;Mongolia</title>
<path fill="none" stroke="black" d="M1145,-406.67C1103.7,-419.95 1024.9,-445.31 979.48,-459.91"/>
</g>
<!-- China&#45;&gt;India -->
<g id="edge51" class="edge"><title>China&#45;&gt;India</title>
<path fill="none" stroke="black" d="M1160.7,-380.12C1152.5,-368.66 1141.5,-353.26 1133.3,-341.82"/>
</g>
<!-- Siam -->
<g id="node34" class="node"><title>Siam</title>
<ellipse fill="green" stroke="green" cx="1146" cy="-253" rx="31" ry="18"/>
<text text-anchor="middle" x="1146" y="-249.3" font-family="Times,serif" font-size="14.00">Siam</text>
</g>
<!-- China&#45;&gt;Siam -->
<g id="edge52" class="edge"><title>China&#45;&gt;Siam</title>
<path fill="none" stroke="black" d="M1170.3,-378.83C1168.4,-360.83 1164.9,-331.77 1160,-307 1157.6,-294.87 1154,-281.39 1151.1,-271.06"/>
</g>
<!-- Japan -->
<g id="node31" class="node"><title>Japan</title>
<ellipse fill="green" stroke="green" cx="930" cy="-397" rx="33" ry="18"/>
<text text-anchor="middle" x="930" y="-393.3" font-family="Times,serif" font-size="14.00">Japan</text>
</g>
<!-- Japan&#45;&gt;Kamchatka -->
<g id="edge53" class="edge"><title>Japan&#45;&gt;Kamchatka</title>
<path fill="none" stroke="black" d="M915.51,-413.24C906.53,-423.78 895.83,-438.63 891,-454 886.21,-469.27 885.92,-474.83 891,-490 895.61,-503.77 905.38,-516.83 914.1,-526.53"/>
</g>
<!-- Japan&#45;&gt;Mongolia -->
<g id="edge54" class="edge"><title>Japan&#45;&gt;Mongolia</title>
<path fill="none" stroke="black" d="M933.48,-414.92C935.87,-426.56 939.04,-441.98 941.45,-453.7"/>
</g>
<!-- MiddleEast&#45;&gt;Ukraine -->
<g id="edge77" class="edge"><title>MiddleEast&#45;&gt;Ukraine</title>
<path fill="none" stroke="black" d="M879.98,-325C872.09,-325 864.2,-325 856.3,-325"/>
</g>
<!-- MiddleEast&#45;&gt;SouthernEurope -->
<g id="edge78" class="edge"><title>MiddleEast&#45;&gt;SouthernEurope</title>
<path fill="none" stroke="black" d="M896.09,-312.05C856.83,-299.67 795.62,-280.37 754.69,-267.46"/>
</g>
<!-- India&#45;&gt;MiddleEast -->
<g id="edge55" class="edge"><title>India&#45;&gt;MiddleEast</title>
<path fill="none" stroke="black" d="M1093.2,-325C1058.1,-325 1023.1,-325 987.98,-325"/>
</g>
<!-- India&#45;&gt;Siam -->
<g id="edge56" class="edge"><title>India&#45;&gt;Siam</title>
<path fill="none" stroke="black" d="M1127.8,-307.05C1131.6,-296.05 1136.5,-281.76 1140.2,-270.79"/>
</g>
<!-- Indonesia -->
<g id="node39" class="node"><title>Indonesia</title>
<ellipse fill="pink" stroke="pink" cx="1146" cy="-170" rx="48.5" ry="18"/>
<text text-anchor="middle" x="1146" y="-166.3" font-family="Times,serif" font-size="14.00">Indonesia</text>
</g>
<!-- Siam&#45;&gt;Indonesia -->
<g id="edge79" class="edge"><title>Siam&#45;&gt;Indonesia</title>
<path fill="none" stroke="black" d="M1146,-234.82C1146,-221.08 1146,-201.89 1146,-188.15"/>
</g>
<!-- Brazil -->
<g id="node36" class="node"><title>Brazil</title>
<ellipse fill="orangered" stroke="orangered" cx="112" cy="-472" rx="34.5" ry="18"/>
<text text-anchor="middle" x="112" y="-468.3" font-family="Times,serif" font-size="14.00">Brazil</text>
</g>
<!-- Brazil&#45;&gt;NorthAfrica -->
<g id="edge75" class="edge"><title>Brazil&#45;&gt;NorthAfrica</title>
<path fill="none" stroke="black" d="M136.03,-459.75C163.3,-447 207.82,-426.16 237.5,-412.27"/>
</g>
<!-- Brazil&#45;&gt;Venezuala -->
<g id="edge57" class="edge"><title>Brazil&#45;&gt;Venezuala</title>
<path fill="none" stroke="black" d="M108.05,-490.28C105.56,-501.18 102.35,-515.21 99.87,-526.05"/>
</g>
<!-- Peru -->
<g id="node37" class="node"><title>Peru</title>
<ellipse fill="orangered" stroke="orangered" cx="35" cy="-472" rx="28.5" ry="18"/>
<text text-anchor="middle" x="35" y="-468.3" font-family="Times,serif" font-size="14.00">Peru</text>
</g>
<!-- Peru&#45;&gt;Venezuala -->
<g id="edge58" class="edge"><title>Peru&#45;&gt;Venezuala</title>
<path fill="none" stroke="black" d="M48.236,-488.19C58.159,-499.58 71.716,-515.13 81.852,-526.76"/>
</g>
<!-- Argentina -->
<g id="node38" class="node"><title>Argentina</title>
<ellipse fill="orangered" stroke="orangered" cx="76" cy="-397" rx="49.5" ry="18"/>
<text text-anchor="middle" x="76" y="-393.3" font-family="Times,serif" font-size="14.00">Argentina</text>
</g>
<!-- Argentina&#45;&gt;Brazil -->
<g id="edge59" class="edge"><title>Argentina&#45;&gt;Brazil</title>
<path fill="none" stroke="black" d="M84.261,-414.75C90.132,-426.66 97.98,-442.57 103.83,-454.44"/>
</g>
<!-- Argentina&#45;&gt;Peru -->
<g id="edge60" class="edge"><title>Argentina&#45;&gt;Peru</title>
<path fill="none" stroke="black" d="M66.642,-414.66C59.882,-426.7 50.799,-442.87 44.099,-454.8"/>
</g>
<!-- NewGuinea -->
<g id="node40" class="node"><title>NewGuinea</title>
<ellipse fill="pink" stroke="pink" cx="1083" cy="-98" rx="59.5" ry="18"/>
<text text-anchor="middle" x="1083" y="-94.3" font-family="Times,serif" font-size="14.00">New Guinea</text>
</g>
<!-- Indonesia&#45;&gt;NewGuinea -->
<g id="edge61" class="edge"><title>Indonesia&#45;&gt;NewGuinea</title>
<path fill="none" stroke="black" d="M1131.4,-152.76C1121.4,-141.62 1108.1,-126.87 1098,-115.63"/>
</g>
<!-- WesternAustralia -->
<g id="node41" class="node"><title>WesternAustralia</title>
<ellipse fill="pink" stroke="pink" cx="1232" cy="-98" rx="81" ry="18"/>
<text text-anchor="middle" x="1232" y="-94.3" font-family="Times,serif" font-size="14.00">Western Australia</text>
</g>
<!-- Indonesia&#45;&gt;WesternAustralia -->
<g id="edge62" class="edge"><title>Indonesia&#45;&gt;WesternAustralia</title>
<path fill="none" stroke="black" d="M1165.1,-153.46C1178.9,-142.19 1197.7,-126.96 1211.8,-115.47"/>
</g>
<!-- NewGuinea&#45;&gt;WesternAustralia -->
<g id="edge63" class="edge"><title>NewGuinea&#45;&gt;WesternAustralia</title>
<path fill="none" stroke="black" d="M1138.3,-98C1144.4,-98 1150.5,-98 1156.6,-98"/>
</g>
<!-- EasternAustralia -->
<g id="node42" class="node"><title>EasternAustralia</title>
<ellipse fill="pink" stroke="pink" cx="1165" cy="-26" rx="78" ry="18"/>
<text text-anchor="middle" x="1165" y="-22.3" font-family="Times,serif" font-size="14.00">Eastern Australia</text>
</g>
<!-- EasternAustralia&#45;&gt;NewGuinea -->
<g id="edge64" class="edge"><title>EasternAustralia&#45;&gt;NewGuinea</title>
<path fill="none" stroke="black" d="M1145.8,-43.39C1132.6,-54.651 1115.2,-69.537 1102,-80.765"/>
</g>
<!-- EasternAustralia&#45;&gt;WesternAustralia -->
<g id="edge65" class="edge"><title>EasternAustralia&#45;&gt;WesternAustralia</title>
<path fill="none" stroke="black" d="M1181.1,-43.789C1191.6,-54.764 1205.2,-69.049 1215.8,-80.055"/>
</g>
</g>
</svg>
