<?xml version="1.0" encoding="UTF-8" standalone="no"?>
<!DOCTYPE svg PUBLIC "-//W3C//DTD SVG 1.1//EN"
 "http://www.w3.org/Graphics/SVG/1.1/DTD/svg11.dtd">
<!-- Generated by graphviz version 2.38.0 (20140413.2041)
 -->
<!-- Title: foo Pages: 1 -->
<svg width="541pt" height="920pt"
 viewBox="144.00 144.00 397.00 776.00" xmlns="http://www.w3.org/2000/svg" xmlns:xlink="http://www.w3.org/1999/xlink">
<g id="graph0" class="graph" transform="scale(1 1) rotate(0) translate(148 772)">
<title>foo</title>
<polygon fill="white" stroke="none" points="-4,4 -4,-628 249,-628 249,4 -4,4"/>
<!-- DI -->
<g id="node1" class="node"><title>DI</title>
<path fill="#ab9271" stroke="#1c3f94" d="M9.66667,-594.5C9.66667,-594.5 235.333,-594.5 235.333,-594.5 240.167,-594.5 245,-599.333 245,-604.167 245,-604.167 245,-613.833 245,-613.833 245,-618.667 240.167,-623.5 235.333,-623.5 235.333,-623.5 9.66667,-623.5 9.66667,-623.5 4.83333,-623.5 0,-618.667 0,-613.833 0,-613.833 0,-604.167 0,-604.167 0,-599.333 4.83333,-594.5 9.66667,-594.5"/>
<text text-anchor="start" x="10" y="-605.3" font-family="schlbk" font-size="14.00">Study concept &amp; design</text>
</g>
<!-- DV -->
<g id="node2" class="node"><title>DV</title>
<path fill="#ea871c" stroke="#1c3f94" d="M9.66667,-528.5C9.66667,-528.5 235.333,-528.5 235.333,-528.5 240.167,-528.5 245,-533.333 245,-538.167 245,-538.167 245,-547.833 245,-547.833 245,-552.667 240.167,-557.5 235.333,-557.5 235.333,-557.5 9.66667,-557.5 9.66667,-557.5 4.83333,-557.5 0,-552.667 0,-547.833 0,-547.833 0,-538.167 0,-538.167 0,-533.333 4.83333,-528.5 9.66667,-528.5"/>
<text text-anchor="start" x="10" y="-539.3" font-family="schlbk" font-size="14.00">Data Collection</text>
</g>
<!-- DI&#45;&gt;DV -->
<!-- DA -->
<g id="node3" class="node"><title>DA</title>
<path fill="#41ad49" stroke="#1c3f94" d="M9.66667,-462.5C9.66667,-462.5 235.333,-462.5 235.333,-462.5 240.167,-462.5 245,-467.333 245,-472.167 245,-472.167 245,-481.833 245,-481.833 245,-486.667 240.167,-491.5 235.333,-491.5 235.333,-491.5 9.66667,-491.5 9.66667,-491.5 4.83333,-491.5 0,-486.667 0,-481.833 0,-481.833 0,-472.167 0,-472.167 0,-467.333 4.83333,-462.5 9.66667,-462.5"/>
<text text-anchor="start" x="10" y="-473.3" font-family="schlbk" font-size="14.00">Data processing</text>
</g>
<!-- DV&#45;&gt;DA -->
<!-- Pub -->
<g id="node4" class="node"><title>Pub</title>
<path fill="#acd1ef" stroke="#1c3f94" d="M9.66667,-396.5C9.66667,-396.5 235.333,-396.5 235.333,-396.5 240.167,-396.5 245,-401.333 245,-406.167 245,-406.167 245,-415.833 245,-415.833 245,-420.667 240.167,-425.5 235.333,-425.5 235.333,-425.5 9.66667,-425.5 9.66667,-425.5 4.83333,-425.5 0,-420.667 0,-415.833 0,-415.833 0,-406.167 0,-406.167 0,-401.333 4.83333,-396.5 9.66667,-396.5"/>
<text text-anchor="start" x="10" y="-407.3" font-family="schlbk" font-size="14.00">Data access and disemination</text>
</g>
<!-- DA&#45;&gt;Pub -->
<!-- FB -->
<g id="node5" class="node"><title>FB</title>
<path fill="#00aeef" stroke="#1c3f94" d="M9.66667,-330.5C9.66667,-330.5 235.333,-330.5 235.333,-330.5 240.167,-330.5 245,-335.333 245,-340.167 245,-340.167 245,-349.833 245,-349.833 245,-354.667 240.167,-359.5 235.333,-359.5 235.333,-359.5 9.66667,-359.5 9.66667,-359.5 4.83333,-359.5 0,-354.667 0,-349.833 0,-349.833 0,-340.167 0,-340.167 0,-335.333 4.83333,-330.5 9.66667,-330.5"/>
<text text-anchor="start" x="10" y="-341.3" font-family="schlbk" font-size="14.00">Data analysis</text>
</g>
<!-- Pub&#45;&gt;FB -->
<!-- FB2 -->
<g id="node6" class="node"><title>FB2</title>
<path fill="#a6ce39" stroke="#1c3f94" d="M9.66667,-264.5C9.66667,-264.5 235.333,-264.5 235.333,-264.5 240.167,-264.5 245,-269.333 245,-274.167 245,-274.167 245,-283.833 245,-283.833 245,-288.667 240.167,-293.5 235.333,-293.5 235.333,-293.5 9.66667,-293.5 9.66667,-293.5 4.83333,-293.5 0,-288.667 0,-283.833 0,-283.833 0,-274.167 0,-274.167 0,-269.333 4.83333,-264.5 9.66667,-264.5"/>
<text text-anchor="start" x="10" y="-275.3" font-family="schlbk" font-size="14.00">Curation tools</text>
</g>
<!-- FB&#45;&gt;FB2 -->
<!-- FB3 -->
<g id="node7" class="node"><title>FB3</title>
<path fill="#62889a" stroke="#1c3f94" d="M9.66667,-198.5C9.66667,-198.5 235.333,-198.5 235.333,-198.5 240.167,-198.5 245,-203.333 245,-208.167 245,-208.167 245,-217.833 245,-217.833 245,-222.667 240.167,-227.5 235.333,-227.5 235.333,-227.5 9.66667,-227.5 9.66667,-227.5 4.83333,-227.5 0,-222.667 0,-217.833 0,-217.833 0,-208.167 0,-208.167 0,-203.333 4.83333,-198.5 9.66667,-198.5"/>
<text text-anchor="start" x="10" y="-209.3" font-family="schlbk" font-size="14.00">Information interation</text>
</g>
<!-- FB2&#45;&gt;FB3 -->
<!-- FB4 -->
<g id="node8" class="node"><title>FB4</title>
<path fill="#ec008c" stroke="#1c3f94" d="M9.66667,-132.5C9.66667,-132.5 235.333,-132.5 235.333,-132.5 240.167,-132.5 245,-137.333 245,-142.167 245,-142.167 245,-151.833 245,-151.833 245,-156.667 240.167,-161.5 235.333,-161.5 235.333,-161.5 9.66667,-161.5 9.66667,-161.5 4.83333,-161.5 0,-156.667 0,-151.833 0,-151.833 0,-142.167 0,-142.167 0,-137.333 4.83333,-132.5 9.66667,-132.5"/>
<text text-anchor="start" x="10" y="-143.3" font-family="schlbk" font-size="14.00">Information discovery</text>
</g>
<!-- FB3&#45;&gt;FB4 -->
<!-- FB5 -->
<g id="node9" class="node"><title>FB5</title>
<path fill="#fff200" stroke="#1c3f94" d="M9.66667,-66.5C9.66667,-66.5 235.333,-66.5 235.333,-66.5 240.167,-66.5 245,-71.3333 245,-76.1667 245,-76.1667 245,-85.8333 245,-85.8333 245,-90.6667 240.167,-95.5 235.333,-95.5 235.333,-95.5 9.66667,-95.5 9.66667,-95.5 4.83333,-95.5 0,-90.6667 0,-85.8333 0,-85.8333 0,-76.1667 0,-76.1667 0,-71.3333 4.83333,-66.5 9.66667,-66.5"/>
<text text-anchor="start" x="10" y="-77.3" font-family="schlbk" font-size="14.00">Research Results</text>
</g>
<!-- FB4&#45;&gt;FB5 -->
<!-- FB6 -->
<g id="node10" class="node"><title>FB6</title>
<path fill="#d2232a" stroke="#1c3f94" d="M9.66667,-0.5C9.66667,-0.5 235.333,-0.5 235.333,-0.5 240.167,-0.5 245,-5.33333 245,-10.1667 245,-10.1667 245,-19.8333 245,-19.8333 245,-24.6667 240.167,-29.5 235.333,-29.5 235.333,-29.5 9.66667,-29.5 9.66667,-29.5 4.83333,-29.5 0,-24.6667 0,-19.8333 0,-19.8333 0,-10.1667 0,-10.1667 0,-5.33333 4.83333,-0.5 9.66667,-0.5"/>
<text text-anchor="start" x="10" y="-11.3" font-family="schlbk" font-size="14.00">Outcomes</text>
</g>
<!-- FB5&#45;&gt;FB6 -->
</g>
</svg>
